<svg width="59" height="59" viewBox="0 0 59 59" fill="none" xmlns="http://www.w3.org/2000/svg">
<path d="M53.6531 38.1658L47.9375 43.8813L44.9875 40.9313L43.5125 42.222L47.9375 46.4626L55.1282 39.4563L53.6531 38.1658Z" fill="#19CAAF"/>
<path d="M53.4688 32.45V18.4375C53.4688 16.4093 51.8093 14.75 49.7812 14.75H27.6562L23.9688 7.375H3.6875C1.65933 7.375 0 9.03433 0 11.0625V44.25C0 46.2781 1.65933 47.9375 3.6875 47.9375H41.1156C42.9593 50.15 45.7249 51.625 48.8593 51.625C54.3907 51.625 59 47.0157 59 41.4843C59 37.6125 56.7875 34.1093 53.4688 32.45ZM1.84375 11.0625C1.84375 10.1407 2.58125 9.21875 3.6875 9.21875H22.8625L26.55 16.5938H49.7812C50.7031 16.5938 51.625 17.3313 51.625 18.4375V22.125H1.84375V11.0625ZM3.6875 46.0938C2.76567 46.0938 1.84375 45.3563 1.84375 44.25V23.9688H51.625V31.7125C50.7032 31.5281 49.7813 31.3438 48.8593 31.3438C43.3281 31.3438 38.7187 35.9531 38.7187 41.4844C38.7187 43.1438 39.0874 44.6188 39.8249 46.0938H3.6875ZM48.8593 49.7812C44.25 49.7812 40.5625 46.0938 40.5625 41.4844C40.5625 36.8751 44.25 33.1875 48.8593 33.1875C53.4687 33.1875 57.1562 36.875 57.1562 41.4843C57.1562 46.0937 53.4688 49.7812 48.8593 49.7812Z" fill="#19CAAF"/>
</svg>
