<svg width="50" height="50" viewBox="0 0 50 50" fill="none" xmlns="http://www.w3.org/2000/svg">
<path d="M13.8604 31.1728C13.5957 31.1728 13.3438 31.0176 13.2324 30.7588C12.6182 29.3301 12.3057 27.8086 12.3057 26.2353C12.3057 19.9043 17.4561 14.7539 23.7871 14.7539C24.165 14.7539 24.4707 15.0596 24.4707 15.4375C24.4707 15.8154 24.165 16.1211 23.7871 16.1211C18.21 16.1211 13.6729 20.6582 13.6729 26.2353C13.6729 27.6211 13.9473 28.9609 14.4883 30.2187C14.6377 30.5654 14.4775 30.9678 14.1309 31.1172C14.042 31.1543 13.9502 31.1728 13.8604 31.1728Z" fill="#19CAAF"/>
<path d="M23.787 37.7167C22.2158 37.7167 20.6943 37.4052 19.2656 36.7919C19.0576 36.7021 18.9072 36.5156 18.8642 36.2929C18.8212 36.0703 18.8915 35.8408 19.0517 35.6806L33.2324 21.5009C33.3925 21.3408 33.622 21.2704 33.8447 21.3134C34.0673 21.3564 34.2538 21.5068 34.3437 21.7148C34.9579 23.1445 35.2685 24.665 35.2685 26.2353C35.2685 32.5663 30.1181 37.7167 23.787 37.7167ZM20.7714 35.8935C21.7411 36.1962 22.7519 36.3495 23.787 36.3495C29.3642 36.3495 33.9013 31.8124 33.9013 26.2353C33.9013 25.2011 33.748 24.1904 33.4452 23.2206L20.7714 35.8935Z" fill="#19CAAF"/>
<path d="M10.083 34.9492C9.84863 34.9492 9.62012 34.8281 9.49316 34.6113C8.72266 33.2998 8.14062 31.8965 7.75879 30.4316L4.85059 30.0957C4.50586 30.0557 4.24512 29.7637 4.24512 29.417V23.6533C4.24512 23.3066 4.50488 23.0146 4.84961 22.9746L7.61035 22.6543C7.98242 20.9678 8.61133 19.3633 9.48633 17.8711L7.66699 15.5742C7.45117 15.3018 7.47363 14.9121 7.71973 14.666L11.7949 10.5908C12.04 10.3457 12.4307 10.3232 12.7031 10.5381L14.8818 12.2646C16.3408 11.332 17.9199 10.6416 19.5908 10.2061L19.9268 7.29785C19.9668 6.95313 20.2588 6.69238 20.6055 6.69238H26.3691C26.7158 6.69238 27.0078 6.95215 27.0478 7.29688L27.3682 10.0576C29.0576 10.4307 30.668 11.0625 32.1611 11.9404C32.4863 12.1318 32.5957 12.5508 32.4043 12.876C32.2129 13.2012 31.7939 13.3105 31.4687 13.1191C29.9668 12.2354 28.335 11.624 26.6201 11.2998C26.3262 11.2441 26.1025 11.0039 26.0684 10.707L25.7607 8.05859H21.2158L20.8955 10.834C20.8623 11.1211 20.6514 11.3574 20.3691 11.4219C18.5273 11.8447 16.7988 12.6016 15.2324 13.6719C14.9854 13.8408 14.6572 13.8291 14.4229 13.6436L12.333 11.9873L9.11914 15.2012L10.8555 17.3926C11.0352 17.6191 11.0527 17.9346 10.8994 18.1797C9.89355 19.7852 9.20605 21.542 8.85547 23.4004C8.7998 23.6943 8.55957 23.918 8.26269 23.9531L5.61426 24.2607V28.8057L8.38965 29.126C8.67676 29.1592 8.91309 29.3701 8.97754 29.6523C9.32129 31.1514 9.89258 32.5859 10.6738 33.917C10.8652 34.2422 10.7559 34.6611 10.4307 34.8525C10.3203 34.918 10.2012 34.9492 10.083 34.9492Z" fill="#19CAAF"/>
<path d="M26.9678 45.7774H21.2041C20.8574 45.7774 20.5654 45.5177 20.5254 45.1729L20.2051 42.4122C18.5156 42.0391 16.9063 41.4073 15.4131 40.5304C15.2305 40.4229 15.1084 40.2374 15.0811 40.0274C15.0547 39.8175 15.126 39.6075 15.2754 39.4571L19.0508 35.6807L37.0088 17.7247C37.1582 17.5753 37.3692 17.503 37.5791 17.5303C37.7891 17.5577 37.9746 17.6798 38.082 17.8624C38.8516 19.1749 39.4336 20.5782 39.8154 22.0411L42.7236 22.377C43.0684 22.4171 43.3291 22.7091 43.3291 23.0557V28.8194C43.3291 29.1661 43.0694 29.4581 42.7246 29.4981L39.9639 29.8184C39.5918 31.505 38.9629 33.1095 38.0879 34.6016L39.9072 36.8975C40.1231 37.17 40.1006 37.5597 39.8545 37.8057L35.7793 41.8809C35.5342 42.1261 35.1436 42.1485 34.8711 41.9337L32.6924 40.2071C31.0977 41.2266 29.3574 41.9581 27.5117 42.3809C27.1436 42.4659 26.7774 42.2354 26.6924 41.8673C26.6074 41.4991 26.8379 41.1329 27.2061 41.0479C29.0479 40.6251 30.7764 39.8682 32.3428 38.7979C32.5899 38.629 32.918 38.6407 33.1524 38.8263L35.2422 40.4825L38.4561 37.2686L36.7197 35.0772C36.5401 34.8507 36.5225 34.5352 36.6758 34.2901C37.6817 32.6846 38.3692 30.9278 38.7197 29.0694C38.7754 28.7755 39.0156 28.5518 39.3125 28.5167L41.961 28.2091V23.6641L39.1856 23.3438C38.8985 23.3106 38.6621 23.0997 38.5977 22.8175C38.3203 21.6094 37.8955 20.4415 37.3301 19.336L16.8867 39.7794C18.168 40.4347 19.5322 40.9005 20.9541 41.169C21.2481 41.2247 21.4717 41.4649 21.5059 41.7618L21.8135 44.4102H26.3604C26.4238 44.0577 26.751 43.8116 27.1113 43.8526C27.4863 43.8956 27.7549 44.2354 27.7119 44.6104L27.6465 45.172C27.6065 45.5167 27.3145 45.7774 26.9678 45.7774Z" fill="#19CAAF"/>
<path d="M8.19834 48.6592C7.24326 48.6592 6.31846 48.4668 5.44932 48.0869C5.10361 47.9355 4.94541 47.5332 5.0958 47.1865C5.24717 46.8408 5.64951 46.6826 5.99619 46.834C6.6915 47.1377 7.43271 47.292 8.19834 47.292C11.2384 47.292 13.711 44.8193 13.711 41.7793C13.711 41.6338 13.7062 41.5029 13.6954 41.3779C13.6788 41.1777 13.7511 40.9805 13.8937 40.8389L19.0509 35.6816L37.9728 16.7607C38.1007 16.6328 38.2745 16.5605 38.4562 16.5605H43.2569L47.3136 12.5029L47.3146 7.93555L42.0978 13.1523C41.9698 13.2803 41.796 13.3525 41.6144 13.3525C41.4327 13.3525 41.2589 13.2803 41.131 13.1523L36.8731 8.89258C36.6065 8.62598 36.6065 8.19238 36.8731 7.92578L42.0899 2.70898L37.5216 2.70996L33.4659 6.7666L33.4649 11.5684C33.4649 11.75 33.3927 11.9238 33.2647 12.0518L22.1349 23.1797C21.8683 23.4463 21.4347 23.4463 21.1681 23.1797C20.9015 22.9131 20.9015 22.4795 21.1681 22.2129L32.0968 11.2832L32.0978 6.48145C32.0978 6.2998 32.17 6.12598 32.298 5.99805L36.754 1.54102C36.8819 1.41309 37.0558 1.34082 37.2374 1.34082L43.5401 1.33984C43.7218 1.33984 43.8956 1.41211 44.0235 1.54004L44.1231 1.63965C44.3897 1.90625 44.3897 2.33984 44.1231 2.60645L38.3214 8.4082L41.6134 11.7002L47.4151 5.89746C47.5431 5.76953 47.7169 5.69727 47.8985 5.69727C47.8995 5.69727 47.8995 5.69727 47.9005 5.69727C48.0821 5.69727 48.2569 5.77051 48.3849 5.90039L48.4835 6C48.6105 6.12793 48.6808 6.30078 48.6808 6.48047L48.6798 12.7832C48.6798 12.9648 48.6075 13.1387 48.4796 13.2666L44.0226 17.7246C43.8946 17.8525 43.7208 17.9248 43.5392 17.9248H38.7384L15.0753 41.5898C15.0772 41.6514 15.0782 41.7139 15.0782 41.7793C15.0782 45.5732 11.9913 48.6592 8.19834 48.6592Z" fill="#19CAAF"/>
<path d="M3.9082 46.7519C3.86426 46.7519 3.81934 46.7471 3.77441 46.7383C3.73145 46.7295 3.68848 46.7168 3.64648 46.6992C3.60547 46.6826 3.56543 46.6611 3.5293 46.6367C3.49121 46.6123 3.45605 46.583 3.4248 46.5518C3.39355 46.5205 3.36523 46.4853 3.33984 46.4482C3.31543 46.4111 3.29395 46.3711 3.27734 46.3301C3.25977 46.2891 3.24707 46.2461 3.23828 46.2021C3.22949 46.1582 3.22461 46.1133 3.22461 46.0684C3.22461 46.0244 3.22949 45.9795 3.23828 45.9346C3.24707 45.8916 3.25977 45.8486 3.27734 45.8066C3.29395 45.7656 3.31543 45.7256 3.33984 45.6895C3.36523 45.6514 3.39355 45.6162 3.4248 45.585C3.45605 45.5537 3.49121 45.5254 3.5293 45.5C3.56543 45.4756 3.60547 45.4541 3.64648 45.4375C3.68848 45.4199 3.73145 45.4072 3.77441 45.3984C3.86328 45.3809 3.9541 45.3809 4.04199 45.3984C4.08594 45.4072 4.12891 45.4199 4.16992 45.4375C4.21094 45.4541 4.25098 45.4756 4.28809 45.5C4.3252 45.5254 4.36035 45.5537 4.3916 45.585C4.42285 45.6162 4.45215 45.6514 4.47656 45.6895C4.50098 45.7256 4.52246 45.7656 4.53906 45.8066C4.55664 45.8486 4.56934 45.8916 4.57812 45.9346C4.58789 45.9795 4.5918 46.0244 4.5918 46.0684C4.5918 46.1133 4.58789 46.1582 4.57812 46.2021C4.56934 46.2461 4.55664 46.2891 4.53906 46.3301C4.52246 46.3711 4.50098 46.4111 4.47656 46.4482C4.45215 46.4853 4.42285 46.5205 4.3916 46.5518C4.36035 46.583 4.3252 46.6123 4.28809 46.6367C4.25098 46.6611 4.21094 46.6826 4.16992 46.6992C4.12891 46.7168 4.08594 46.7295 4.04199 46.7383C3.99805 46.7471 3.95312 46.7519 3.9082 46.7519Z" fill="#19CAAF"/>
<path d="M2.56445 45.0449C2.30566 45.0449 2.05762 44.8975 1.94238 44.6465C1.52832 43.7441 1.31836 42.7793 1.31836 41.7793C1.31836 37.9854 4.4043 34.8994 8.19824 34.8994C8.29102 34.8994 8.38379 34.9014 8.47656 34.9053L17.6904 25.6914C17.957 25.4248 18.3906 25.4248 18.6572 25.6914C18.9238 25.958 18.9238 26.3916 18.6572 26.6582L9.22461 36.0908C9.08106 36.2344 8.87988 36.3066 8.67871 36.2881C8.52149 36.2734 8.36035 36.2666 8.19824 36.2666C5.1582 36.2666 2.68555 38.7393 2.68555 41.7793C2.68555 42.5811 2.85352 43.3535 3.18555 44.0762C3.34277 44.4189 3.19238 44.8252 2.84961 44.9824C2.75684 45.0244 2.66016 45.0449 2.56445 45.0449Z" fill="#19CAAF"/>
<path d="M8.19824 45.1289C8.03516 45.1289 7.87402 45.1172 7.71777 45.0938C6.25879 44.8867 5.09082 43.7197 4.88379 42.2549C4.86133 42.1045 4.84961 41.9424 4.84961 41.7793C4.84961 39.9326 6.35254 38.4297 8.19922 38.4297C10.0459 38.4297 11.5488 39.9326 11.5488 41.7793C11.5488 43.626 10.0449 45.1289 8.19824 45.1289ZM8.19824 39.7969C7.10547 39.7969 6.21582 40.6865 6.21582 41.7793C6.21582 41.874 6.22266 41.9678 6.23633 42.0576C6.35937 42.9287 7.0498 43.6182 7.91504 43.7412C8.00977 43.7559 8.10351 43.7617 8.19824 43.7617C9.29101 43.7617 10.1807 42.8721 10.1807 41.7793C10.1807 40.6865 9.29101 39.7969 8.19824 39.7969Z" fill="#19CAAF"/>
<path d="M8.19824 45.1289C8.03516 45.1289 7.87402 45.1172 7.71777 45.0938C6.25879 44.8867 5.09082 43.7197 4.88379 42.2549C4.86133 42.1045 4.84961 41.9424 4.84961 41.7793C4.84961 39.9326 6.35254 38.4297 8.19922 38.4297C10.0459 38.4297 11.5488 39.9326 11.5488 41.7793C11.5488 43.626 10.0449 45.1289 8.19824 45.1289ZM8.19824 39.7969C7.10547 39.7969 6.21582 40.6865 6.21582 41.7793C6.21582 41.874 6.22266 41.9678 6.23633 42.0576C6.35937 42.9287 7.0498 43.6182 7.91504 43.7412C8.00977 43.7559 8.10351 43.7617 8.19824 43.7617C9.29101 43.7617 10.1807 42.8721 10.1807 41.7793C10.1807 40.6865 9.29101 39.7969 8.19824 39.7969Z" fill="#19CAAF"/>
</svg>
