<svg width="49" height="49" viewBox="0 0 49 49" fill="none" xmlns="http://www.w3.org/2000/svg">
<path d="M41.0155 7.59753H36.9224V5.2761C36.9224 4.80371 36.5395 4.42083 36.0671 4.42083H29.879C29.3512 1.92121 27.127 0.0627441 24.5001 0.0627441C21.8732 0.0627441 19.649 1.92121 19.1211 4.4208H12.933C12.4607 4.4208 12.0777 4.80368 12.0777 5.27607V7.5975H7.98448C7.51209 7.5975 7.12918 7.98041 7.12918 8.4528V48.0819C7.12918 48.5543 7.51209 48.9372 7.98448 48.9372H41.0155C41.488 48.9372 41.8709 48.5543 41.8709 48.0819V8.45282C41.8709 7.98044 41.488 7.59753 41.0155 7.59753ZM13.7884 6.13139H19.8665C20.3189 6.13139 20.6928 5.77927 20.7203 5.32788C20.841 3.33469 22.5013 1.77336 24.5001 1.77336C26.4989 1.77336 28.1591 3.33469 28.2799 5.32788C28.3073 5.77927 28.6813 6.13139 29.1336 6.13139H35.2118V7.59753V9.30812V11.3446H13.7884V9.30812V7.59753V6.13139ZM40.1603 47.2266H8.83983V9.30812H12.0777V12.1999C12.0777 12.6723 12.4607 13.0552 12.933 13.0552H36.0671C36.5395 13.0552 36.9224 12.6723 36.9224 12.1999V9.30812H40.1603V47.2266Z" fill="#19CAAF"/>
<path d="M18.0656 18.6205L14.5466 22.1396L12.9731 20.566C12.639 20.2321 12.0975 20.2321 11.7634 20.566C11.4294 20.9 11.4294 21.4415 11.7634 21.7756L13.9418 23.954C14.1088 24.1209 14.3277 24.2045 14.5466 24.2045C14.7656 24.2045 14.9844 24.1209 15.1515 23.954L19.2753 19.8302C19.6093 19.4961 19.6093 18.9546 19.2753 18.6205C18.9412 18.2867 18.3997 18.2867 18.0656 18.6205Z" fill="#19CAAF"/>
<path d="M22.4582 20.4321C21.9858 20.4321 21.6029 20.815 21.6029 21.2874C21.6029 21.7598 21.9858 22.1427 22.4582 22.1427H36.6319C37.1043 22.1427 37.4872 21.7598 37.4872 21.2874C37.4872 20.815 37.1043 20.4321 36.6319 20.4321H22.4582Z" fill="#19CAAF"/>
<path d="M18.0656 28.3092L14.5466 31.8283L12.9731 30.2547C12.639 29.9208 12.0975 29.9208 11.7634 30.2547C11.4294 30.5888 11.4294 31.1303 11.7634 31.4644L13.9418 33.6427C14.1088 33.8097 14.3277 33.8932 14.5466 33.8932C14.7656 33.8932 14.9844 33.8097 15.1515 33.6427L19.2753 29.5189C19.6093 29.1849 19.6093 28.6434 19.2753 28.3092C18.9412 27.9754 18.3997 27.9754 18.0656 28.3092Z" fill="#19CAAF"/>
<path d="M36.6319 30.1206H22.4582C21.9858 30.1206 21.6029 30.5035 21.6029 30.9759C21.6029 31.4483 21.9858 31.8312 22.4582 31.8312H36.6319C37.1043 31.8312 37.4872 31.4483 37.4872 30.9759C37.4872 30.5035 37.1043 30.1206 36.6319 30.1206Z" fill="#19CAAF"/>
<path d="M18.0656 37.9975L14.5466 41.5165L12.9731 39.9429C12.639 39.609 12.0975 39.609 11.7634 39.9429C11.4294 40.277 11.4294 40.8185 11.7634 41.1526L13.9418 43.3309C14.1088 43.4979 14.3277 43.5814 14.5466 43.5814C14.7656 43.5814 14.9844 43.4979 15.1515 43.3309L19.2753 39.2072C19.6093 38.873 19.6093 38.3315 19.2753 37.9975C18.9412 37.6636 18.3997 37.6636 18.0656 37.9975Z" fill="#19CAAF"/>
<path d="M36.6319 39.8091H22.4582C21.9858 39.8091 21.6029 40.192 21.6029 40.6644C21.6029 41.1368 21.9858 41.5197 22.4582 41.5197H36.6319C37.1043 41.5197 37.4872 41.1368 37.4872 40.6644C37.4872 40.192 37.1043 39.8091 36.6319 39.8091Z" fill="#19CAAF"/>
</svg>
