<svg width="55" height="55" viewBox="0 0 55 55" fill="none" xmlns="http://www.w3.org/2000/svg">
<path d="M20.8613 36.5234L20.0234 41.4434C19.8945 42.2383 20.2168 43.0332 20.8613 43.5059C21.2265 43.7852 21.6562 43.9141 22.1074 43.9141C22.4511 43.9141 22.7734 43.8281 23.0957 43.6777L27.5215 41.3574L31.9472 43.6777C32.6562 44.0645 33.5156 44 34.1816 43.5273C34.8476 43.0547 35.1699 42.2598 35.0195 41.4648L34.1816 36.5449L37.748 33.0645C38.3281 32.5059 38.5429 31.668 38.2851 30.8945C38.0273 30.1211 37.3828 29.5625 36.5879 29.4551L31.6465 28.7461L29.4336 24.2773C29.0683 23.5469 28.3379 23.0957 27.5429 23.0957C26.7265 23.0957 25.9961 23.5469 25.6523 24.2773L23.4394 28.7461L18.498 29.4551C17.7031 29.5625 17.0371 30.1211 16.8007 30.8945C16.5429 31.668 16.7578 32.5059 17.3379 33.0645L20.8613 36.5234ZM24.2558 30.7441C24.5996 30.7012 24.9004 30.4648 25.0508 30.1641L27.4785 25.1797L29.9277 30.1641C30.0781 30.4863 30.3789 30.7012 30.7226 30.7441L36.2011 31.5176L32.248 35.3848C31.9902 35.6211 31.8828 35.9863 31.9472 36.3301L32.914 41.7871L27.9941 39.209C27.6933 39.0371 27.3066 39.0371 27.0058 39.209L22.1289 41.7871L23.0742 36.3086C23.1386 35.9648 23.0097 35.5996 22.7734 35.3633L18.7773 31.5176L24.2558 30.7441Z" fill="#19CAAF"/>
<path d="M50.3809 7.69141H44.3652V4.46875C44.3652 3.88867 43.8926 3.39453 43.291 3.39453C42.6895 3.39453 42.2168 3.86719 42.2168 4.46875V7.69141H12.7832V4.46875C12.7832 3.88867 12.3105 3.39453 11.709 3.39453C11.1289 3.39453 10.6348 3.86719 10.6348 4.46875V7.69141H4.61914C2.75 7.69141 1.24609 9.19531 1.24609 11.0645V16.4141V48.2324C1.24609 50.1016 2.75 51.6055 4.61914 51.6055H50.3809C52.25 51.6055 53.7539 50.1016 53.7539 48.2324V16.4141V11.0645C53.7539 9.19531 52.2285 7.69141 50.3809 7.69141ZM51.627 48.2324C51.627 48.9199 51.0684 49.4785 50.3809 49.4785H4.61914C3.93164 49.4785 3.37305 48.9199 3.37305 48.2324V17.4883H51.6055V48.2324H51.627ZM51.627 15.3613H3.37305V11.0645C3.37305 10.377 3.93164 9.81836 4.61914 9.81836H50.3809C51.0684 9.81836 51.627 10.377 51.627 11.0645V15.3613Z" fill="#19CAAF"/>
</svg>
