<svg width="49" height="49" viewBox="0 0 49 49" fill="none" xmlns="http://www.w3.org/2000/svg">
<path d="M45.0518 18.988C44.89 18.395 45.1057 17.4651 45.3078 16.5757C45.6178 15.2415 45.9682 13.7321 45.2539 12.5192C44.5397 11.2794 43.0438 10.8212 41.7231 10.4304C40.8606 10.1608 39.9576 9.89131 39.5399 9.47354C39.1221 9.05576 38.8391 8.15283 38.583 7.29033C38.1787 5.96963 37.734 4.47373 36.4941 3.75947C36.009 3.47646 35.443 3.3417 34.7826 3.3417C34.0145 3.3417 33.2059 3.53037 32.4377 3.70557C31.7369 3.86729 31.0766 4.01553 30.5106 4.01553C30.3219 4.01553 30.1602 4.00205 30.0119 3.96162C29.4594 3.81338 28.7856 3.17998 28.1387 2.57354C27.1279 1.6167 25.969 0.538574 24.5 0.538574C23.0311 0.538574 21.8856 1.6167 20.8613 2.57354C20.2145 3.17998 19.5406 3.81338 18.9881 3.96162C18.8533 4.00205 18.6781 4.01553 18.4895 4.01553C17.9369 4.01553 17.2631 3.86729 16.5623 3.70557C15.7807 3.53037 14.9856 3.3417 14.2174 3.3417C13.5436 3.3417 12.991 3.47646 12.5059 3.75947C11.266 4.47373 10.8078 5.96963 10.417 7.29033C10.1475 8.15283 9.87794 9.05576 9.46017 9.47354C9.04239 9.89131 8.13946 10.1743 7.27696 10.4304C5.95626 10.8347 4.46036 11.2794 3.74611 12.5192C3.03185 13.7456 3.38224 15.255 3.6922 16.5757C3.89435 17.4651 4.10997 18.395 3.94825 18.988C3.80001 19.5405 3.16661 20.2144 2.56017 20.8612C1.60333 21.872 0.525208 23.031 0.525208 24.4999C0.525208 25.9688 1.60333 27.1144 2.56017 28.1386C3.16661 28.7854 3.80001 29.4593 3.94825 30.0118C4.10997 30.6048 3.89435 31.5347 3.6922 32.4241C3.38224 33.7583 3.03185 35.2677 3.74611 36.4806C4.46036 37.7204 5.95626 38.1786 7.27696 38.5694C8.13946 38.839 9.04239 39.1085 9.46017 39.5263C9.87794 39.944 10.1609 40.847 10.417 41.7095C10.8213 43.0302 11.266 44.5261 12.5059 45.2403C12.991 45.5233 13.557 45.6581 14.2174 45.6581C14.9856 45.6581 15.7942 45.4694 16.5623 45.2942C17.2631 45.1325 17.9234 44.9843 18.4895 44.9843C18.6781 44.9843 18.8399 44.9978 18.9881 45.0382C19.5406 45.1864 20.2145 45.8198 20.8613 46.4263C21.8721 47.3831 23.0311 48.4612 24.5 48.4612C25.969 48.4612 27.1145 47.3831 28.1387 46.4263C28.7856 45.8198 29.4594 45.1864 30.0119 45.0382C30.1467 44.9978 30.3219 44.9843 30.5106 44.9843C31.0631 44.9843 31.7369 45.1325 32.4377 45.2942C33.2193 45.4694 34.0145 45.6581 34.7826 45.6581C35.4565 45.6581 36.009 45.5233 36.4941 45.2403C37.734 44.5261 38.1922 43.0302 38.583 41.7095C38.8525 40.847 39.1221 39.944 39.5399 39.5263C39.9576 39.1085 40.8606 38.8255 41.7231 38.5694C43.0438 38.1651 44.5397 37.7204 45.2539 36.4806C45.9682 35.2542 45.6178 33.7448 45.3078 32.4241C45.1057 31.5347 44.89 30.6048 45.0518 30.0118C45.2 29.4593 45.8334 28.7854 46.4398 28.1386C47.3967 27.1278 48.4748 25.9688 48.4748 24.4999C48.4748 23.031 47.3967 21.8855 46.4398 20.8612C45.8334 20.2144 45.2 19.5405 45.0518 18.988ZM44.9574 26.7505C44.1758 27.586 43.3807 28.4351 43.0977 29.4862C42.8012 30.5778 43.0842 31.7503 43.3402 32.8823C43.5693 33.8931 43.8119 34.9442 43.502 35.4833C43.1785 36.0358 42.1408 36.3458 41.1301 36.6558C40.025 36.9927 38.8795 37.3431 38.0979 38.1247C37.3162 38.9063 36.9658 40.0519 36.6289 41.1569C36.319 42.1677 36.009 43.2054 35.4565 43.5288C35.2813 43.6231 35.0522 43.677 34.7557 43.677C34.2166 43.677 33.5563 43.5288 32.8555 43.3671C32.0738 43.1919 31.2652 43.0032 30.4836 43.0032C30.1063 43.0032 29.7828 43.0437 29.4729 43.1245C28.4217 43.4075 27.5727 44.2026 26.7371 44.9843C25.9555 45.712 25.1469 46.4667 24.4865 46.4667C23.8262 46.4667 23.0176 45.712 22.2359 44.9843C21.4004 44.2026 20.5514 43.4075 19.5002 43.1245C19.1902 43.0437 18.8533 43.0032 18.4895 43.0032C17.7078 43.0032 16.8992 43.1919 16.1176 43.3671C15.4168 43.5288 14.7699 43.677 14.2174 43.677C13.9209 43.677 13.6918 43.6231 13.5166 43.5288C12.9641 43.2054 12.6541 42.1677 12.3442 41.1569C12.0072 40.0519 11.6568 38.9063 10.8752 38.1247C10.0936 37.3431 8.94806 36.9927 7.84298 36.6558C6.83224 36.3458 5.79454 36.0358 5.47111 35.4833C5.16115 34.9442 5.40372 33.9065 5.63282 32.8823C5.88888 31.7503 6.17189 30.5778 5.8754 29.4862C5.5924 28.4351 4.79728 27.586 4.01564 26.7505C3.2879 25.9688 2.53322 25.1603 2.53322 24.4999C2.53322 23.8261 3.2879 23.031 4.01564 22.2493C4.79728 21.4138 5.5924 20.5647 5.8754 19.5136C6.17189 18.422 5.88888 17.2495 5.63282 16.1175C5.40372 15.1067 5.16115 14.0556 5.47111 13.5165C5.79454 12.964 6.83224 12.654 7.84298 12.344C8.94806 12.0071 10.0936 11.6567 10.8752 10.8751C11.6568 10.0935 12.0072 8.94795 12.3442 7.84287C12.6541 6.83213 12.9641 5.79443 13.5166 5.471C13.6918 5.37666 13.9209 5.32275 14.2174 5.32275C14.7565 5.32275 15.4168 5.471 16.1176 5.63272C16.8992 5.80791 17.7078 5.99658 18.4895 5.99658C18.8668 5.99658 19.1902 5.95615 19.5002 5.87529C20.5514 5.59229 21.4004 4.79717 22.2359 4.01553C23.0176 3.28779 23.8262 2.53311 24.4865 2.53311C25.1469 2.53311 25.9555 3.28779 26.7371 4.01553C27.5727 4.79717 28.4217 5.59229 29.4729 5.87529C29.7828 5.95615 30.1197 5.99658 30.4836 5.99658C31.2652 5.99658 32.0738 5.80791 32.8555 5.63272C33.5563 5.471 34.2031 5.32275 34.7557 5.32275C35.0522 5.32275 35.2813 5.37666 35.4565 5.471C36.009 5.79443 36.319 6.83213 36.6289 7.84287C36.9658 8.94795 37.3162 10.0935 38.0979 10.8751C38.8795 11.6567 40.025 12.0071 41.1301 12.344C42.1408 12.654 43.1785 12.964 43.502 13.5165C43.8119 14.0556 43.5693 15.0933 43.3402 16.1175C43.0842 17.2495 42.8012 18.422 43.0977 19.5136C43.3807 20.5647 44.1758 21.4138 44.9574 22.2493C45.6852 23.031 46.4398 23.8396 46.4398 24.4999C46.4533 25.1737 45.6986 25.9688 44.9574 26.7505Z" fill="#19CAAF"/>
<path d="M16.8049 21.6158C19.4598 21.6158 21.6026 19.4596 21.6026 16.8182C21.6026 14.1633 19.4463 12.0205 16.8049 12.0205C14.15 12.0205 12.0073 14.1768 12.0073 16.8182C12.0073 19.4596 14.1635 21.6158 16.8049 21.6158ZM16.8049 14.0285C18.3412 14.0285 19.5811 15.2818 19.5811 16.8047C19.5811 18.341 18.3278 19.5809 16.8049 19.5809C15.2821 19.5809 14.0287 18.3275 14.0287 16.8047C14.0287 15.2818 15.2821 14.0285 16.8049 14.0285Z" fill="#19CAAF"/>
<path d="M32.1951 27.384C29.5402 27.384 27.3975 29.5403 27.3975 32.1817C27.3975 34.8366 29.5537 36.9794 32.1951 36.9794C34.85 36.9794 36.9928 34.8231 36.9928 32.1817C36.9928 29.5403 34.8365 27.384 32.1951 27.384ZM32.1951 34.9713C30.6588 34.9713 29.4189 33.718 29.4189 32.1952C29.4189 30.6723 30.6723 29.419 32.1951 29.419C33.718 29.419 34.9713 30.6723 34.9713 32.1952C34.9713 33.718 33.718 34.9713 32.1951 34.9713Z" fill="#19CAAF"/>
<path d="M35.6856 13.3144C35.2947 12.9235 34.6479 12.9235 34.257 13.3144L13.3145 34.2435C12.9237 34.6343 12.9237 35.2811 13.3145 35.672C13.5166 35.8741 13.7727 35.9685 14.0287 35.9685C14.2848 35.9685 14.5408 35.8741 14.743 35.672L35.6856 14.7563C36.0764 14.3521 36.0764 13.7187 35.6856 13.3144Z" fill="#19CAAF"/>
</svg>
