<svg width="59" height="59" viewBox="0 0 59 59" fill="none" xmlns="http://www.w3.org/2000/svg">
<path d="M29.6094 41.358C18.2087 41.358 8.93042 32.0824 8.93042 20.679C8.93042 9.27563 18.2061 0 29.6094 0C41.0128 0 50.2884 9.27563 50.2884 20.679C50.2883 32.0823 41.0127 41.358 29.6094 41.358ZM29.6094 2.43678C19.5506 2.43678 11.3672 10.6202 11.3672 20.679C11.3672 30.7378 19.5506 38.9239 29.6094 38.9239C39.6682 38.9239 47.8543 30.7404 47.8543 20.679C47.8517 10.6202 39.6681 2.43678 29.6094 2.43678ZM29.6094 32.2935C23.2059 32.2935 17.9948 27.0826 17.9948 20.6789C17.9948 14.2752 23.2057 9.06426 29.6094 9.06426C36.0131 9.06426 41.2265 14.2752 41.2265 20.6789C41.2265 27.0826 36.013 32.2935 29.6094 32.2935ZM29.6094 11.4987C24.5478 11.4987 20.4316 15.6176 20.4316 20.6765C20.4316 25.7381 24.5478 29.8568 29.6094 29.8568C34.671 29.8568 38.7897 25.7406 38.7897 20.6765C38.7897 15.6174 34.6709 11.4987 29.6094 11.4987Z" fill="white"/>
<path d="M15.2825 59C14.8961 59 14.5278 58.8171 14.2985 58.5003L9.77789 52.3131L2.17646 51.3549C1.76948 51.3034 1.41666 51.051 1.23623 50.6852C1.05595 50.3169 1.07142 49.8816 1.28002 49.5286L9.96328 34.7973C10.1745 34.4418 10.5481 34.2178 10.9602 34.1997C11.3775 34.1868 11.7638 34.3748 12.0059 34.7097C14.9707 38.8799 18.9169 41.2524 24.0636 41.9582C24.4654 42.0148 24.8158 42.2672 24.9934 42.633C25.1712 43.0013 25.1531 43.4315 24.947 43.7818L16.3308 58.3973C16.1222 58.7501 15.7512 58.9743 15.3416 58.9949C15.3212 59 15.3006 59 15.2825 59ZM4.31969 49.1705L10.6048 49.9613C10.9371 50.0025 11.2385 50.1803 11.4369 50.4508L15.1745 55.5664L21.9593 44.0574C17.6139 43.107 13.9896 40.9354 11.1511 37.5792L4.31969 49.1705Z" fill="white"/>
<path d="M43.7174 59C43.6969 59 43.6788 59 43.6582 58.9974C43.2486 58.9768 42.8776 58.7527 42.669 58.3998L34.0528 43.7843C33.8467 43.434 33.8287 43.0013 34.0064 42.6355C34.1842 42.2697 34.5319 42.0146 34.9362 41.9606C40.0854 41.2522 44.029 38.8824 46.9939 34.7122C47.2334 34.3747 47.643 34.1919 48.0396 34.2021C48.4517 34.2202 48.8279 34.4443 49.0365 34.7998L57.7198 49.5311C57.9284 49.8839 57.9438 50.3168 57.7636 50.6877C57.5833 51.056 57.2303 51.3085 56.8233 51.3574L49.2219 52.3156L44.7013 58.5028C44.4721 58.8171 44.1065 59 43.7174 59ZM37.0434 44.0601L43.8282 55.569L47.5658 50.4534C47.7642 50.1829 48.063 50.0052 48.3979 49.9639L54.683 49.1732L47.8519 37.5818C45.0131 40.9356 41.3888 43.1096 37.0434 44.0601Z" fill="white"/>
</svg>
