<svg width="58" height="58" viewBox="0 0 58 58" fill="none" xmlns="http://www.w3.org/2000/svg">
<g clip-path="url(#clip0)">
<path fill-rule="evenodd" clip-rule="evenodd" d="M25.3316 25.4165C24.9537 25.7944 24.9537 26.4054 25.3316 26.7833L31.1316 32.5833C31.3201 32.7718 31.5676 32.8666 31.8151 32.8666C32.0625 32.8666 32.31 32.7718 32.4985 32.5833C32.8765 32.2054 32.8765 31.5944 32.4985 31.2165L26.6985 25.4165C26.3205 25.0385 25.7096 25.0385 25.3316 25.4165ZM22.8318 29.2831C22.4539 28.9052 21.8429 28.9052 21.465 29.2831C21.087 29.6611 21.087 30.272 21.465 30.65L27.265 36.45C27.4535 36.6385 27.7009 36.7332 27.9484 36.7332C28.1959 36.7332 28.4433 36.6385 28.6318 36.45C29.0098 36.072 29.0098 35.4611 28.6318 35.0831L22.8318 29.2831ZM18.9652 33.1498C18.5872 32.7718 17.9763 32.7718 17.5983 33.1498C17.2203 33.5278 17.2203 34.1387 17.5983 34.5167L23.3983 40.3167C23.5868 40.5052 23.8343 40.5999 24.0817 40.5999C24.3292 40.5999 24.5767 40.5052 24.7652 40.3167C25.1431 39.9387 25.1431 39.3278 24.7652 38.9498L18.9652 33.1498ZM37.2149 30.9332L26.9817 20.7001L12.8819 34.7999L23.1151 45.033L37.2149 30.9332ZM27.6652 18.6498L39.2652 30.2498C39.6431 30.6278 39.6431 31.2387 39.2652 31.6167L23.7985 47.0833C23.61 47.2718 23.3625 47.3666 23.1151 47.3666C22.8676 47.3666 22.6201 47.2718 22.4316 47.0833L10.8316 35.4833C10.4537 35.1054 10.4537 34.4944 10.8316 34.1165L26.2983 18.6498C26.6763 18.2718 27.2872 18.2718 27.6652 18.6498ZM50.1576 35.3557C49.6955 35.0841 49.1039 35.2397 48.8342 35.7008L37.7543 54.5992C36.9539 55.9844 35.1762 56.461 33.8344 55.6876L31.6759 54.2889C31.2293 53.9979 30.6299 54.1265 30.3399 54.574C30.049 55.0226 30.1766 55.6209 30.6251 55.9109L32.8252 57.3368C33.5841 57.7747 34.4144 57.9825 35.2342 57.9825C36.9055 57.9825 38.5324 57.1173 39.4247 55.5716L50.5017 36.6781C50.7714 36.218 50.6177 35.6264 50.1576 35.3557ZM57.9151 4.83324V20.2999C57.9151 23.2908 56.9639 25.5189 54.7318 27.75L26.0238 56.4987C25.1103 57.4122 23.8961 57.9139 22.6047 57.9139C21.3132 57.9139 20.1 57.4122 19.1885 56.4987L1.41629 38.7275C0.502789 37.814 0.00012207 36.5998 0.00012207 35.3084C0.00012207 34.0169 0.502789 32.8037 1.41629 31.8912L26.5245 6.81684C19.9589 5.32431 15.8844 5.22378 14.6915 5.57274C15.1952 6.08798 16.7641 7.18224 20.5505 8.67478C21.0474 8.87101 21.291 9.43167 21.0957 9.92854C20.8995 10.4254 20.3378 10.6661 19.8419 10.4737C12.0042 7.38427 12.4624 5.67134 12.6354 5.02658C12.9941 3.68291 14.909 3.23534 18.8318 3.57851C22.0266 3.85787 26.1504 4.64571 30.4434 5.79508C34.7363 6.94541 38.6997 8.32484 41.6055 9.68108C45.1773 11.3466 46.6089 12.6893 46.2484 14.034C45.9004 15.3312 44.0917 15.4898 43.4972 15.542C43.4692 15.5449 43.4402 15.5458 43.4122 15.5458C42.9163 15.5458 42.4948 15.1659 42.4503 14.6633C42.403 14.1316 42.7964 13.6628 43.329 13.6164C43.7408 13.5806 44.0144 13.5245 44.1913 13.4743C43.7776 13.0422 42.7307 12.3684 41.0564 11.5661C40.7055 12.1577 40.5151 12.8372 40.5151 13.5332C40.5151 15.6657 42.2493 17.3999 44.3817 17.3999C46.5142 17.3999 48.2484 15.6657 48.2484 13.5332C48.2484 11.4008 46.5142 9.66657 44.3817 9.66657C43.8472 9.66657 43.4151 9.23448 43.4151 8.69991C43.4151 8.16534 43.8472 7.73324 44.3817 7.73324C47.5804 7.73324 50.1817 10.3345 50.1817 13.5332C50.1817 16.7319 47.5804 19.3332 44.3817 19.3332C41.183 19.3332 38.5817 16.7319 38.5817 13.5332C38.5817 12.5637 38.8369 11.6192 39.2922 10.7763C36.979 9.80481 33.876 8.71731 29.9436 7.66267C29.5289 7.55151 29.1297 7.45001 28.7304 7.34851L2.78316 33.259C2.23506 33.8062 1.93346 34.535 1.93346 35.3084C1.93346 36.0836 2.23506 36.8115 2.78316 37.3596L20.5553 55.1318C21.6506 56.227 23.5607 56.227 24.6559 55.1318L53.364 26.3831C55.248 24.5001 55.9817 22.7939 55.9817 20.2999V4.83324C55.9817 3.23438 54.6806 1.93324 53.0817 1.93324H37.6151C35.1211 1.93324 33.4149 2.66694 31.5318 4.55001C31.1539 4.92798 30.5429 4.92798 30.165 4.55001C29.787 4.17204 29.787 3.56111 30.165 3.18314C32.396 0.951108 34.6242 -9.15527e-05 37.6151 -9.15527e-05H53.0817C55.7468 -9.15527e-05 57.9151 2.16814 57.9151 4.83324Z" fill="white"/>
</g>
<defs>
<clipPath id="clip0">
<rect width="58" height="58" fill="white"/>
</clipPath>
</defs>
</svg>
