<svg width="37" height="58" viewBox="0 0 37 58" fill="none" xmlns="http://www.w3.org/2000/svg">
<path d="M33.0368 44.776L25.984 41.3424L23.664 40.2288V39.4864C26.2624 37.7232 29.1392 34.2896 31.552 27.84C32.8048 27.7936 33.872 27.2368 34.5216 26.3088C35.3104 25.1952 35.4496 23.7104 34.8928 22.504C34.7072 22.0864 34.4288 21.7616 34.1504 21.4832H35.264V17.0288L33.2688 16.472V16.1936C33.2688 10.3936 29.9744 5.1504 24.7776 2.5984C24.4992 1.5776 23.6176 0.8352 22.504 0.8352H19.024V0H17.168V0.7888H13.688C12.5744 0.7888 11.6928 1.5312 11.4144 2.552C6.2176 5.104 2.9232 10.3936 2.9232 16.1472V16.4256L0.928 17.0288V21.4832H2.0416C1.7168 21.7616 1.4848 22.1328 1.2992 22.504C0.7424 23.7104 0.8816 25.1952 1.6704 26.3088C2.3664 27.2832 3.4336 27.7936 4.64 27.84C7.0528 34.2896 9.976 37.6768 12.528 39.4864V40.2288L10.8112 41.064L3.1552 44.776C1.2528 45.704 0 47.6528 0 49.7872V58H36.192V49.7872C36.192 47.6528 34.9392 45.704 33.0368 44.776ZM21.7616 41.4352C21.7152 41.6672 21.6688 41.8528 21.6224 42.0848V42.1312C21.576 42.224 21.576 42.2704 21.5296 42.3632C21.5296 42.4096 21.4832 42.456 21.4832 42.5024C21.4368 42.5488 21.4368 42.5952 21.3904 42.6416C21.344 42.7344 21.2976 42.8272 21.2512 42.8736C21.2512 42.8736 21.2512 42.8736 21.2512 42.92C20.8336 43.5232 20.2768 43.9872 19.6272 44.2656C19.6272 44.2656 19.6272 44.2656 19.5808 44.2656C19.488 44.312 19.3952 44.3584 19.3024 44.3584H19.256C19.1632 44.4048 19.0704 44.4048 18.9776 44.4048C18.9312 44.4048 18.9312 44.4048 18.8848 44.4048C18.792 44.4048 18.6992 44.4512 18.6064 44.4512C18.56 44.4512 18.56 44.4512 18.5136 44.4512C18.3744 44.4512 18.2816 44.4512 18.1424 44.4512C16.1008 44.4512 14.4304 42.7808 14.4304 40.7392V40.4608C15.9616 41.1568 17.2608 41.296 18.1424 41.296C19.024 41.296 20.3232 41.1568 21.8544 40.4608V40.832C21.808 40.9248 21.7616 41.2032 21.7616 41.4352ZM33.0368 25.2416C32.8512 25.4736 32.6192 25.752 32.2016 25.8912C32.4336 24.8704 32.6192 23.7568 32.712 22.736C32.944 22.8752 33.1296 23.0608 33.2224 23.3392C33.5008 23.896 33.4544 24.6848 33.0368 25.2416ZM2.784 18.4208L4.7792 17.864V16.1936C4.7792 11.4608 7.3312 7.0992 11.3216 4.7328V10.3008H13.1776V3.1552C13.1776 2.8768 13.4096 2.6448 13.688 2.6448H17.168V13.3168H19.024V2.6448H22.504C22.7824 2.6448 23.0144 2.8768 23.0144 3.1552V10.2544H24.8704V4.6864C28.9072 7.0528 31.4128 11.4144 31.4128 16.1472V17.8176L33.408 18.3744V19.5808H2.784V18.4208ZM3.1552 25.2416C2.7376 24.6848 2.6912 23.896 2.9696 23.3392C3.1088 23.1072 3.248 22.8752 3.48 22.736C3.5728 23.896 3.8048 24.9168 4.0368 25.8912C3.6192 25.752 3.3408 25.4736 3.1552 25.2416ZM6.1712 26.6336C5.7536 25.1024 5.336 23.4784 5.2432 21.4832H30.9488C30.9024 22.968 30.5776 25.1952 30.0672 26.5872C25.8912 38.2336 20.3232 39.4864 18.096 39.4864C15.9152 39.5328 10.3472 38.28 6.1712 26.6336ZM34.336 56.144H30.16V54.752H28.304V56.144H7.888V54.752H6.032V56.144H1.856V49.7872C1.856 48.3488 2.6912 47.0496 3.944 46.4464L12.7136 42.224C12.7136 42.2704 12.76 42.3168 12.76 42.3632C12.76 42.4096 12.8064 42.5024 12.8064 42.5488C12.8528 42.6416 12.8992 42.7808 12.9456 42.8736C12.9456 42.92 12.992 42.9664 12.992 43.0128C13.0384 43.152 13.1312 43.2912 13.1776 43.384C13.1776 43.384 13.1776 43.4304 13.224 43.4304C13.3168 43.5696 13.4096 43.7088 13.5024 43.848C13.5488 43.8944 13.5488 43.9408 13.5952 43.9872C13.6416 44.08 13.7344 44.1728 13.8272 44.2656C13.8736 44.312 13.92 44.3584 13.9664 44.4048C14.0128 44.4976 14.1056 44.544 14.1984 44.6368C14.2448 44.6832 14.2912 44.7296 14.3376 44.776C14.4304 44.8688 14.4768 44.9152 14.5696 45.008C14.616 45.0544 14.6624 45.1008 14.7088 45.1472C14.8016 45.24 14.8944 45.2864 14.9872 45.3792C15.0336 45.4256 15.08 45.4256 15.08 45.472C15.2192 45.5648 15.3584 45.6576 15.4976 45.7504C15.544 45.7504 15.544 45.7968 15.5904 45.7968C15.7296 45.8432 15.8224 45.936 15.9616 45.9824C16.008 46.0288 16.0544 46.0288 16.1472 46.0288C16.24 46.0752 16.3328 46.1216 16.472 46.1216C16.5184 46.1216 16.6112 46.168 16.6576 46.168C16.7504 46.2144 16.8896 46.2144 16.9824 46.2608C17.0288 46.2608 17.1216 46.3072 17.168 46.3072C17.2608 46.3072 17.4 46.3536 17.5392 46.3536C17.5856 46.3536 17.632 46.3536 17.7248 46.3536C17.9104 46.3536 18.096 46.4 18.2352 46.4C18.4208 46.4 18.56 46.4 18.7456 46.4C18.8384 46.4 18.9312 46.4 18.9776 46.3536C19.0704 46.3536 19.1168 46.3536 19.2096 46.3072C19.3024 46.3072 19.4416 46.2608 19.5344 46.2144C19.5808 46.2144 19.6272 46.2144 19.6736 46.168C19.8128 46.1216 19.9056 46.0752 20.0448 46.0752C20.0912 46.0752 20.0912 46.0752 20.1376 46.0288C20.2768 45.9824 20.416 45.936 20.5088 45.8896H20.5552C20.6944 45.8432 20.8336 45.7504 20.9264 45.704C21.0656 45.6112 21.1584 45.5648 21.2976 45.472C21.4368 45.3792 21.5296 45.3328 21.6224 45.24C21.6224 45.24 21.6688 45.24 21.6688 45.1936C21.7616 45.1008 21.8544 45.008 21.9472 44.9616L21.9936 44.9152C22.0864 44.8224 22.1328 44.776 22.2256 44.6832C22.272 44.6368 22.3184 44.5904 22.3184 44.544C22.3648 44.4976 22.4112 44.4048 22.504 44.3584C22.5504 44.2656 22.6432 44.2192 22.6896 44.1264C22.736 44.08 22.736 44.0336 22.7824 44.0336C23.1536 43.5232 23.432 42.92 23.5712 42.2704L32.2944 46.4928C33.5936 47.096 34.3824 48.4416 34.3824 49.8336V56.144H34.336Z" fill="white"/>
<path d="M28.072 16.24H8.12V18.096H28.072V16.24Z" fill="white"/>
</svg>
