<svg width="14" height="14" viewBox="0 0 14 14" fill="none" xmlns="http://www.w3.org/2000/svg">
<path d="M1.70632 0.41009C1.53344 0.243112 1.30189 0.150717 1.06154 0.152806C0.821194 0.154894 0.591282 0.251299 0.421325 0.421257C0.251368 0.591214 0.154962 0.821126 0.152874 1.06147C0.150785 1.30182 0.24318 1.53337 0.410158 1.70626L5.70391 7.00001L0.409242 12.2938C0.321691 12.3783 0.251857 12.4795 0.203815 12.5913C0.155774 12.7031 0.130487 12.8234 0.129429 12.9451C0.128371 13.0669 0.151565 13.1876 0.197655 13.3002C0.243746 13.4129 0.311811 13.5152 0.39788 13.6013C0.483948 13.6874 0.586296 13.7554 0.698951 13.8015C0.811606 13.8476 0.932312 13.8708 1.05403 13.8697C1.17574 13.8687 1.29603 13.8434 1.40786 13.7954C1.5197 13.7473 1.62085 13.6775 1.70541 13.5899L7.00007 8.29618L12.2938 13.5899C12.4667 13.7569 12.6983 13.8493 12.9386 13.8472C13.179 13.8451 13.4089 13.7487 13.5788 13.5788C13.7488 13.4088 13.8452 13.1789 13.8473 12.9385C13.8494 12.6982 13.757 12.4666 13.59 12.2938L8.29624 7.00001L13.59 1.70626C13.757 1.53337 13.8494 1.30182 13.8473 1.06147C13.8452 0.821126 13.7488 0.591214 13.5788 0.421257C13.4089 0.251299 13.179 0.154894 12.9386 0.152806C12.6983 0.150717 12.4667 0.243112 12.2938 0.41009L7.00007 5.70384L1.70632 0.409174V0.41009Z" fill="#A2A2A2"/>
</svg>
