<svg width="59" height="59" viewBox="0 0 59 59" fill="none" xmlns="http://www.w3.org/2000/svg">
<path d="M49.8109 0H9.18913C4.12228 0 0 4.12216 0 9.18913V49.8109C0 54.8778 4.12228 59 9.18913 59H49.8108C54.8777 59 59 54.8778 59 49.8109V9.18913C59 4.12216 54.8777 0 49.8109 0ZM57.2715 49.8109C57.2715 53.9247 53.9246 57.2715 49.8109 57.2715H9.18913C5.07538 57.2715 1.72852 53.9247 1.72852 49.8109V9.18913C1.72852 5.07527 5.07538 1.72852 9.18913 1.72852H49.8108C53.9246 1.72852 57.2715 5.07527 57.2715 9.18913V49.8109Z" fill="white"/>
<path d="M49.8108 4.10352H9.18912C6.38489 4.10352 4.10336 6.38493 4.10336 9.18927V11.8081C4.10336 12.2854 4.49032 12.6723 4.96762 12.6723C5.44492 12.6723 5.83188 12.2854 5.83188 11.8081V9.18927C5.83188 7.33814 7.33788 5.83203 9.18912 5.83203H49.8107C51.6619 5.83203 53.168 7.33803 53.168 9.18927V49.8109C53.168 51.6621 51.662 53.1681 49.8107 53.1681H9.18912C7.33799 53.1681 5.83188 51.6621 5.83188 49.8109V15.8484C5.83188 15.3711 5.44492 14.9842 4.96762 14.9842C4.49032 14.9842 4.10336 15.3711 4.10336 15.8484V49.8109C4.10336 52.6152 6.38477 54.8966 9.18912 54.8966H49.8107C52.6151 54.8966 54.8965 52.6152 54.8965 49.8109V9.18927C54.8965 6.38493 52.6152 4.10352 49.8108 4.10352Z" fill="white"/>
<path d="M43.4 28.3665C40.9843 26.6617 36.9197 26.0119 33.6646 26.7546C33.329 26.2405 32.9011 25.7925 32.4041 25.4339C33.0521 24.0965 34.1807 23.1111 36.1331 22.1433C37.1602 21.6339 38.4386 21 38.4386 19.3194C38.4386 14.7295 33.8188 11.8884 29.5385 11.8884C24.631 11.8884 20.6385 15.2219 20.6385 19.3194C20.6385 21.3545 21.6355 24.0678 23.1785 26.2318C23.6741 26.9266 24.2007 27.5383 24.7485 28.0593C24.6413 28.4235 24.5736 28.8046 24.5532 29.1981C23.1867 29.0986 21.8986 28.4829 20.3048 27.1957L20.2833 27.1784C19.4012 26.4656 18.3032 25.5782 16.7759 26.2807C12.6058 28.1982 11.9546 33.5826 13.7428 37.4714C15.6332 41.5826 20.21 44.2935 24.2124 42.4529C27.0344 41.1552 29.8159 37.5857 30.6534 34.2848C30.9032 34.2255 31.1457 34.1477 31.3794 34.052C32.1961 35.2708 32.5749 36.7227 32.1588 39.3981C31.9827 40.531 31.7635 41.9409 33.1368 42.9101C36.782 45.4825 41.7801 43.55 44.3398 39.9228C45.6208 38.1075 46.3021 35.8703 46.209 33.7852C46.1069 31.4971 45.1093 29.5726 43.4 28.3665ZM24.5858 25.2281C23.2587 23.3668 22.3671 20.9923 22.3671 19.3193C22.3671 16.1749 25.5842 13.6168 29.5386 13.6168C33.9683 13.6168 36.7102 16.5769 36.7102 19.3193C36.7102 19.8561 36.4398 20.0618 35.3654 20.5945C33.0598 21.7375 31.6619 22.991 30.8465 24.6819C30.4204 24.5623 29.9718 24.4969 29.5078 24.4969C27.9075 24.4969 26.4824 25.2593 25.5745 26.4393C25.2353 26.0789 24.9044 25.6748 24.5858 25.2281ZM23.4903 40.8823C20.385 42.3107 16.7963 39.9744 15.3134 36.7491C13.4627 32.7244 15.0065 28.9967 17.4982 27.8509C17.9862 27.6267 18.2816 27.7829 19.197 28.5226L19.2187 28.54C21.2161 30.1533 22.9191 30.896 24.7725 30.9399C25.3389 32.746 26.9124 34.1097 28.8319 34.3724C27.9201 37.2195 25.444 39.984 23.4903 40.8823ZM29.5078 32.6912C27.7252 32.6912 26.2749 31.241 26.2749 29.4583C26.2749 27.6757 27.7252 26.2254 29.5078 26.2254C31.2904 26.2254 32.7407 27.6757 32.7407 29.4583C32.7407 31.2585 31.2691 32.6912 29.5078 32.6912ZM42.9277 38.926C40.891 41.812 36.941 43.479 34.1337 41.4977C33.695 41.1882 33.6829 40.8487 33.8671 39.6635C34.3012 36.8716 34.0046 34.9098 32.8397 33.1314C34.1587 31.9339 34.7405 30.1321 34.3495 28.3784C37.0557 27.8629 40.4915 28.4296 42.4035 29.7788C43.6662 30.6699 44.4045 32.1201 44.4824 33.8621C44.5587 35.572 43.9921 37.4177 42.9277 38.926Z" fill="white"/>
<path d="M44.6725 48.8018C44.6725 50.6762 46.1974 52.2012 48.072 52.2012C49.9465 52.2012 51.4714 50.6762 51.4714 48.8018C51.4714 46.9274 49.9465 45.4023 48.072 45.4023C46.1974 45.4023 44.6725 46.9274 44.6725 48.8018ZM49.7429 48.8018C49.7429 49.7231 48.9933 50.4727 48.072 50.4727C47.1507 50.4727 46.4011 49.7231 46.4011 48.8018C46.4011 47.8805 47.1507 47.1309 48.072 47.1309C48.9933 47.1309 49.7429 47.8805 49.7429 48.8018Z" fill="white"/>
<path d="M44.8674 16.2787C44.4956 16.5781 44.4369 17.1221 44.7362 17.4939C47.5562 20.9969 49.0468 25.2306 49.0468 29.7373C49.0468 40.5111 40.2817 49.2763 29.5077 49.2763C25.0011 49.2763 20.7674 47.7856 17.2644 44.9656C16.8928 44.6664 16.3487 44.7251 16.0493 45.0969C15.75 45.4687 15.8088 46.0128 16.1805 46.312C19.9396 49.3382 24.6726 51.0048 29.5077 51.0048C41.2347 51.0048 50.7753 41.4642 50.7753 29.7373C50.7753 24.902 49.1086 20.169 46.0825 16.41C45.7833 16.0381 45.2393 15.9795 44.8674 16.2787Z" fill="white"/>
<path d="M43.1321 13.4059C39.3203 10.2228 34.4817 8.46973 29.5078 8.46973C17.7809 8.46973 8.2403 18.0103 8.2403 29.7374C8.2403 34.7114 9.99336 39.5498 13.1765 43.3615C13.3474 43.5662 13.5929 43.6718 13.8403 43.6718C14.0357 43.6718 14.2321 43.6058 14.3939 43.4709C14.7603 43.165 14.8092 42.6199 14.5033 42.2536C11.5792 38.7521 9.96881 34.3071 9.96881 29.7374C9.96881 18.9634 18.734 10.1982 29.5078 10.1982C34.0776 10.1982 38.5226 11.8086 42.0241 14.7327C42.3906 15.0388 42.9355 14.9896 43.2415 14.6234C43.5474 14.2569 43.4983 13.712 43.1321 13.4059Z" fill="white"/>
</svg>
