<svg width="18" height="18" viewBox="0 0 18 18" fill="none" xmlns="http://www.w3.org/2000/svg">
<path d="M9.00003 1.44629C12.4618 1.44629 15.2679 4.25236 15.2679 7.71415C15.2679 10.3627 13.4068 13.2491 9.73289 16.4043C9.52861 16.5798 9.26814 16.6762 8.99883 16.6759C8.72952 16.6757 8.46923 16.5789 8.26525 16.403L8.02225 16.1921C4.51096 13.1193 2.73218 10.3036 2.73218 7.71415C2.73218 4.25236 5.53825 1.44629 9.00003 1.44629ZM9.00003 2.41057C7.59344 2.41057 6.24446 2.96934 5.24984 3.96395C4.25523 4.95857 3.69646 6.30755 3.69646 7.71415C3.69646 9.96543 5.33446 12.5594 8.65546 15.4651L8.89525 15.6727C8.9244 15.6978 8.96158 15.7116 9.00003 15.7116C9.03849 15.7116 9.07566 15.6978 9.10482 15.6727C12.5865 12.6821 14.3036 10.0188 14.3036 7.71415C14.3036 7.01767 14.1664 6.32802 13.8999 5.68456C13.6334 5.0411 13.2427 4.45644 12.7502 3.96395C12.2577 3.47147 11.6731 3.08081 11.0296 2.81429C10.3862 2.54776 9.69651 2.41057 9.00003 2.41057ZM9.00003 5.30343C9.6394 5.30343 10.2526 5.55742 10.7047 6.00951C11.1568 6.46161 11.4107 7.07479 11.4107 7.71415C11.4107 8.35351 11.1568 8.96668 10.7047 9.41878C10.2526 9.87088 9.6394 10.1249 9.00003 10.1249C8.36067 10.1249 7.7475 9.87088 7.2954 9.41878C6.84331 8.96668 6.58932 8.35351 6.58932 7.71415C6.58932 7.07479 6.84331 6.46161 7.2954 6.00951C7.7475 5.55742 8.36067 5.30343 9.00003 5.30343ZM9.00003 6.26772C8.61642 6.26772 8.24851 6.42011 7.97725 6.69137C7.706 6.96263 7.55361 7.33053 7.55361 7.71415C7.55361 8.09776 7.706 8.46567 7.97725 8.73693C8.24851 9.00818 8.61642 9.16058 9.00003 9.16058C9.38365 9.16058 9.75156 9.00818 10.0228 8.73693C10.2941 8.46567 10.4465 8.09776 10.4465 7.71415C10.4465 7.33053 10.2941 6.96263 10.0228 6.69137C9.75156 6.42011 9.38365 6.26772 9.00003 6.26772Z" fill="#19CAAF"/>
</svg>
