<svg width="16" height="16" viewBox="0 0 16 16" fill="none" xmlns="http://www.w3.org/2000/svg">
<path d="M2.22517 0.811C2.03657 0.628842 1.78397 0.528048 1.52177 0.530326C1.25957 0.532605 1.00876 0.637774 0.823352 0.823182C0.637944 1.00859 0.532775 1.2594 0.530497 1.5216C0.528218 1.7838 0.629013 2.0364 0.811171 2.225L6.58617 8L0.810171 13.775C0.714661 13.8672 0.638478 13.9776 0.586069 14.0996C0.53366 14.2216 0.506074 14.3528 0.504921 14.4856C0.503767 14.6184 0.529068 14.7501 0.579349 14.873C0.62963 14.9959 0.703883 15.1075 0.797776 15.2014C0.891669 15.2953 1.00332 15.3695 1.12622 15.4198C1.24911 15.4701 1.38079 15.4954 1.51357 15.4943C1.64635 15.4931 1.77757 15.4655 1.89958 15.4131C2.02158 15.3607 2.13192 15.2845 2.22417 15.189L8.00017 9.414L13.7752 15.189C13.9638 15.3712 14.2164 15.472 14.4786 15.4697C14.7408 15.4674 14.9916 15.3622 15.177 15.1768C15.3624 14.9914 15.4676 14.7406 15.4698 14.4784C15.4721 14.2162 15.3713 13.9636 15.1892 13.775L9.41417 8L15.1892 2.225C15.3713 2.0364 15.4721 1.7838 15.4698 1.5216C15.4676 1.2594 15.3624 1.00859 15.177 0.823182C14.9916 0.637774 14.7408 0.532605 14.4786 0.530326C14.2164 0.528048 13.9638 0.628842 13.7752 0.811L8.00017 6.586L2.22517 0.810001V0.811Z" fill="white"/>
</svg>
