<svg width="17" height="17" viewBox="0 0 17 17" fill="none" xmlns="http://www.w3.org/2000/svg">
<path d="M14.2104 13.2441C14.9733 12.3261 15.504 11.2379 15.7574 10.0715C16.0108 8.90514 15.9796 7.69486 15.6664 6.54309C15.3532 5.39132 14.7671 4.33193 13.9579 3.45454C13.1486 2.57715 12.14 1.90758 11.0172 1.50247C9.89445 1.09735 8.69064 0.968611 7.50761 1.12714C6.32457 1.28566 5.19712 1.72679 4.22063 2.4132C3.24414 3.09961 2.44734 4.01111 1.89762 5.0706C1.34791 6.13009 1.06146 7.30639 1.0625 8.49999C1.0629 10.2352 1.67437 11.9148 2.7896 13.2441L2.77897 13.2531C2.81616 13.2977 2.85866 13.336 2.89691 13.3801C2.94472 13.4348 2.99625 13.4863 3.04566 13.5394C3.19441 13.7009 3.34741 13.8561 3.50785 14.0016C3.55672 14.0462 3.60719 14.0877 3.6566 14.1302C3.8266 14.2768 4.00138 14.416 4.18253 14.5456C4.20591 14.5616 4.22716 14.5823 4.25053 14.5987V14.5924C5.49478 15.468 6.97909 15.9379 8.50053 15.9379C10.022 15.9379 11.5063 15.468 12.7505 14.5924V14.5987C12.7739 14.5823 12.7946 14.5616 12.8185 14.5456C12.9992 14.4155 13.1745 14.2768 13.3445 14.1302C13.3939 14.0877 13.4443 14.0457 13.4932 14.0016C13.6537 13.8555 13.8067 13.7009 13.9554 13.5394C14.0048 13.4863 14.0558 13.4348 14.1042 13.3801C14.1419 13.336 14.1849 13.2977 14.2221 13.2526L14.2104 13.2441ZM8.5 4.24999C8.97282 4.24999 9.43503 4.3902 9.82816 4.65289C10.2213 4.91557 10.5277 5.28894 10.7087 5.72577C10.8896 6.1626 10.9369 6.64327 10.8447 7.10701C10.7524 7.57074 10.5248 7.99671 10.1904 8.33105C9.8561 8.66538 9.43013 8.89307 8.96639 8.98531C8.50266 9.07755 8.02198 9.03021 7.58515 8.84927C7.14832 8.66833 6.77496 8.36191 6.51227 7.96878C6.24959 7.57564 6.10938 7.11344 6.10938 6.64062C6.10938 6.00659 6.36125 5.39852 6.80958 4.95019C7.25791 4.50186 7.86597 4.24999 8.5 4.24999ZM4.25372 13.2441C4.26294 12.5465 4.54641 11.8806 5.04282 11.3905C5.53922 10.9003 6.20864 10.6254 6.90625 10.625H10.0938C10.7914 10.6254 11.4608 10.9003 11.9572 11.3905C12.4536 11.8806 12.7371 12.5465 12.7463 13.2441C11.5812 14.294 10.0684 14.875 8.5 14.875C6.93162 14.875 5.41884 14.294 4.25372 13.2441Z" fill="white"/>
</svg>
