<svg width="17" height="17" viewBox="0 0 17 17" fill="none" xmlns="http://www.w3.org/2000/svg">
<path d="M15.0759 5.86201L10.8608 5.24941L8.97647 1.42939C8.92501 1.3248 8.84034 1.24014 8.73575 1.18867C8.47345 1.05918 8.1547 1.16709 8.02354 1.42939L6.13927 5.24941L1.92413 5.86201C1.80792 5.87861 1.70167 5.9334 1.62032 6.01641C1.52198 6.11749 1.46778 6.25348 1.46965 6.39449C1.47152 6.53551 1.52929 6.67002 1.63028 6.76846L4.67999 9.7418L3.95948 13.9403C3.94258 14.038 3.95339 14.1384 3.99068 14.2303C4.02796 14.3221 4.09024 14.4017 4.17043 14.4599C4.25063 14.5182 4.34555 14.5528 4.44441 14.5598C4.54328 14.5669 4.64214 14.5461 4.72979 14.4998L8.50001 12.5176L12.2702 14.4998C12.3732 14.5546 12.4927 14.5729 12.6072 14.5529C12.8961 14.5031 13.0903 14.2292 13.0405 13.9403L12.32 9.7418L15.3697 6.76846C15.4527 6.68711 15.5075 6.58086 15.5241 6.46465C15.569 6.17412 15.3664 5.90518 15.0759 5.86201Z" fill="white"/>
</svg>
