<svg width="49" height="49" viewBox="0 0 49 49" fill="none" xmlns="http://www.w3.org/2000/svg">
<path d="M0.816803 25.3209C1.26768 25.3209 1.63361 24.9558 1.63361 24.5041C1.63361 11.8935 11.8935 1.63361 24.5041 1.63361C29.672 1.63361 34.6145 3.36114 38.6364 6.53442H34.3057C33.8548 6.53442 33.4889 6.89953 33.4889 7.35123C33.4889 7.80292 33.8548 8.16803 34.3057 8.16803H40.7707C40.8246 8.17293 40.8753 8.17375 40.9283 8.16803H41.6561V0.816803C41.6561 0.365111 41.2902 0 40.8393 0C40.3884 0 40.0225 0.365111 40.0225 0.816803V5.56243C35.6477 1.96686 30.2062 0 24.5041 0C10.9925 0 0 10.9925 0 24.5041C0 24.9558 0.365928 25.3209 0.816803 25.3209Z" fill="#19CAAF"/>
<path d="M24.5041 6.53442C14.5955 6.53442 6.53442 14.5955 6.53442 24.5041C6.53442 34.4127 14.5955 42.4737 24.5041 42.4737C34.4127 42.4737 42.4737 34.4127 42.4737 24.5041C42.4737 14.5955 34.4127 6.53442 24.5041 6.53442ZM24.5041 40.8401C15.4964 40.8401 8.16803 33.5118 8.16803 24.5041C8.16803 15.4964 15.4964 8.16803 24.5041 8.16803C33.5118 8.16803 40.8401 15.4964 40.8401 24.5041C40.8401 33.5118 33.5118 40.8401 24.5041 40.8401Z" fill="#19CAAF"/>
<path d="M24.5042 12.2526C24.9552 12.2526 25.3211 11.8874 25.3211 11.4357V9.80179C25.3211 9.35003 24.9552 8.98486 24.5042 8.98486C24.0533 8.98486 23.6873 9.35003 23.6873 9.80179V11.4357C23.6873 11.8874 24.0533 12.2526 24.5042 12.2526Z" fill="#19CAAF"/>
<path d="M24.5042 36.7561C24.0533 36.7561 23.6873 37.1213 23.6873 37.573V39.2069C23.6873 39.6587 24.0533 40.0238 24.5042 40.0238C24.9552 40.0238 25.3211 39.6587 25.3211 39.2069V37.573C25.3211 37.1213 24.9552 36.7561 24.5042 36.7561Z" fill="#19CAAF"/>
<path d="M37.5731 25.3211H39.2069C39.6579 25.3211 40.0239 24.9559 40.0239 24.5042C40.0239 24.0524 39.6579 23.6873 39.2069 23.6873H37.5731C37.1221 23.6873 36.7561 24.0524 36.7561 24.5042C36.7561 24.9559 37.1221 25.3211 37.5731 25.3211Z" fill="#19CAAF"/>
<path d="M11.4356 23.6873H9.80176C9.35082 23.6873 8.98483 24.0524 8.98483 24.5042C8.98483 24.9559 9.35082 25.3211 9.80176 25.3211H11.4356C11.8866 25.3211 12.2526 24.9559 12.2526 24.5042C12.2526 24.0524 11.8866 23.6873 11.4356 23.6873Z" fill="#19CAAF"/>
<path d="M25.3209 20.5361V16.3361C25.3209 15.8844 24.955 15.5193 24.5041 15.5193C24.0532 15.5193 23.6873 15.8844 23.6873 16.3361V20.5361C22.2824 20.9012 21.2369 22.1689 21.2369 23.6873C21.2369 24.2917 21.4125 24.8504 21.7 25.3364L14.9418 32.0947C14.6224 32.414 14.6224 32.9303 14.9418 33.2496C15.101 33.4089 15.3101 33.4889 15.5192 33.4889C15.7283 33.4889 15.9374 33.4089 16.0967 33.2496L22.855 26.4914C23.341 26.7789 23.8996 26.9545 24.5041 26.9545C26.3059 26.9545 27.7713 25.4892 27.7713 23.6873C27.7713 22.1689 26.7258 20.9012 25.3209 20.5361ZM24.5041 25.3209C23.6031 25.3209 22.8705 24.5882 22.8705 23.6873C22.8705 22.7864 23.6031 22.0537 24.5041 22.0537C25.405 22.0537 26.1377 22.7864 26.1377 23.6873C26.1377 24.5882 25.405 25.3209 24.5041 25.3209Z" fill="#19CAAF"/>
<path d="M9.71098 43.013C9.44139 43.3716 9.51492 43.8863 9.88253 44.1558C10.0214 44.2621 10.193 44.3111 10.3645 44.3111C10.6178 44.3111 10.8629 44.2049 11.0262 43.9843C11.2877 43.6257 11.2141 43.111 10.8547 42.8414C10.4952 42.5718 9.98138 42.6453 9.71098 43.013Z" fill="#19CAAF"/>
<path d="M5.90572 37.7935C5.6443 37.4348 5.12963 37.3442 4.76201 37.6064C4.3944 37.876 4.3127 38.3825 4.57412 38.7493C4.73751 38.9707 4.98259 39.0924 5.244 39.0924C5.40739 39.0924 5.57078 39.0434 5.71782 38.938C6.08462 38.6757 6.16713 38.1611 5.90572 37.7935Z" fill="#19CAAF"/>
<path d="M6.22327 39.574C5.88833 39.8754 5.85565 40.3909 6.15791 40.725C6.31313 40.9129 6.54187 41.0036 6.77061 41.0036C6.9585 41.0036 7.15457 40.9382 7.30978 40.7994C7.64473 40.4971 7.6774 39.9824 7.37514 39.6475C7.08186 39.3044 6.56719 39.2799 6.22327 39.574Z" fill="#19CAAF"/>
<path d="M9.03404 41.3303C8.70727 41.028 8.18444 41.0525 7.88217 41.3801C7.57174 41.7142 7.59625 42.2297 7.93119 42.5401C8.0864 42.679 8.28247 42.7525 8.47853 42.7525C8.6991 42.7525 8.91967 42.6627 9.08306 42.4911C9.38532 42.1562 9.36898 41.6415 9.03404 41.3393C9.03404 41.3303 9.03404 41.3303 9.03404 41.3303Z" fill="#19CAAF"/>
<path d="M4.6315 35.8087C4.62333 35.8087 4.62333 35.8087 4.62333 35.8087C4.40276 35.4166 3.90444 35.2777 3.51231 35.5065C3.12018 35.7279 2.98131 36.2254 3.21005 36.6175C3.35709 36.8781 3.63485 37.026 3.92077 37.026C4.05148 37.026 4.19853 36.9933 4.32107 36.9198C4.7132 36.6992 4.85207 36.2 4.6315 35.8087Z" fill="#19CAAF"/>
<path d="M48.1425 26.236C48.1588 26.236 48.167 26.236 48.1752 26.236C48.6163 26.236 48.9758 25.8839 48.9921 25.4518C49.0084 24.9935 48.6572 24.6177 48.2079 24.6022C47.7585 24.585 47.3746 24.9371 47.3582 25.3864C47.3419 25.8357 47.6924 26.2197 48.1425 26.236Z" fill="#19CAAF"/>
<path d="M1.02931 27.7635C1.47863 27.7136 1.8054 27.3133 1.75638 26.864C1.70737 26.4147 1.30707 26.0879 0.857759 26.1369C0.408448 26.1778 0.0816759 26.5863 0.130692 27.0274C0.171538 27.4522 0.530987 27.7626 0.939452 27.7626C0.972129 27.7635 0.996637 27.7635 1.02931 27.7635Z" fill="#19CAAF"/>
<path d="M1.48673 30.1648C1.92788 30.075 2.2138 29.642 2.11577 29.2008C2.02591 28.7597 1.59293 28.473 1.15179 28.571C0.71065 28.6609 0.424725 29.0946 0.522756 29.5358C0.59628 29.9197 0.939391 30.1812 1.31518 30.1812C1.37155 30.1812 1.42955 30.1812 1.48673 30.1648Z" fill="#19CAAF"/>
<path d="M3.56152 33.6931C3.3818 33.2846 2.89981 33.0967 2.48318 33.2765C2.07471 33.4562 1.88682 33.9382 2.06654 34.354C2.20542 34.6563 2.49952 34.845 2.81812 34.845C2.92432 34.845 3.03869 34.8205 3.14489 34.7706C3.55254 34.5917 3.74043 34.1097 3.56152 33.6931Z" fill="#19CAAF"/>
<path d="M2.71938 31.4877C2.58867 31.0547 2.12302 30.8178 1.69822 30.9567C1.26524 31.0956 1.02833 31.5531 1.16721 31.9868C1.28158 32.33 1.60019 32.5497 1.9433 32.5497C2.02499 32.5497 2.11485 32.5415 2.19654 32.517C2.62216 32.3782 2.85907 31.9117 2.71938 31.4877Z" fill="#19CAAF"/>
<path d="M24.0631 47.3664C23.6138 47.3574 23.238 47.7177 23.2299 48.1661C23.2217 48.6244 23.5812 48.9912 24.0305 49.0002C24.0386 49.0002 24.0468 49.0002 24.0468 49.0002C24.4961 49.0002 24.8556 48.6481 24.8637 48.1996C24.8711 47.7503 24.5125 47.3745 24.0631 47.3664Z" fill="#19CAAF"/>
<path d="M42.58 38.504C42.3022 38.8553 42.3676 39.3708 42.7188 39.6477C42.874 39.7621 43.0456 39.8193 43.2253 39.8193C43.4622 39.8193 43.7073 39.7131 43.8707 39.4999C44.1485 39.1486 44.0831 38.6339 43.7237 38.357C43.3642 38.0801 42.8577 38.1446 42.58 38.504Z" fill="#19CAAF"/>
<path d="M37.4333 43.3561C37.0657 43.6093 36.9677 44.1232 37.2291 44.4916C37.3843 44.7204 37.6375 44.8429 37.899 44.8429C38.0624 44.8429 38.2176 44.8021 38.3646 44.704C38.7322 44.4508 38.8303 43.9369 38.5688 43.5685C38.3156 43.1927 37.8099 43.1028 37.4333 43.3561Z" fill="#19CAAF"/>
<path d="M39.3128 41.9175C38.9696 42.2116 38.9288 42.7263 39.2229 43.0694C39.3863 43.2573 39.615 43.3561 39.8438 43.3561C40.0317 43.3561 40.2196 43.2908 40.3748 43.1601C40.7179 42.866 40.7587 42.3513 40.4646 42.0082C40.1697 41.6651 39.6559 41.6243 39.3128 41.9175Z" fill="#19CAAF"/>
<path d="M45.0542 36.2977C44.6703 36.0608 44.1638 36.1834 43.9268 36.5591C43.6899 36.9431 43.8043 37.4496 44.1883 37.6865C44.3271 37.769 44.4742 37.8091 44.6212 37.8091C44.8908 37.8091 45.1604 37.6783 45.3156 37.4243C45.5534 37.042 45.439 36.5346 45.0542 36.2977Z" fill="#19CAAF"/>
<path d="M41.0362 40.2928C40.7176 40.6188 40.734 41.1334 41.0607 41.4447C41.2159 41.5991 41.4202 41.6726 41.6244 41.6726C41.8368 41.6726 42.0574 41.5909 42.2126 41.4193C42.523 41.0926 42.5149 40.5779 42.1881 40.2675C41.8613 39.957 41.3458 39.966 41.0362 40.2928Z" fill="#19CAAF"/>
<path d="M48.0682 27.0435C47.627 26.9789 47.2104 27.2975 47.145 27.7387C47.0797 28.188 47.3901 28.5965 47.8394 28.6618C47.8803 28.67 47.9211 28.67 47.9538 28.67C48.3541 28.67 48.7054 28.3767 48.7626 27.9682C48.8287 27.5263 48.5183 27.1088 48.0682 27.0435Z" fill="#19CAAF"/>
<path d="M47.6851 29.4614C47.2439 29.3552 46.8028 29.6248 46.6884 30.0577C46.5822 30.4989 46.8518 30.94 47.2848 31.0544C47.3501 31.0716 47.4155 31.0789 47.4809 31.0789C47.8485 31.0789 48.1834 30.8257 48.2733 30.458C48.3876 30.0177 48.1172 29.5766 47.6851 29.4614Z" fill="#19CAAF"/>
<path d="M12.8232 44.1565C12.431 43.9286 11.9327 44.0503 11.704 44.4433C11.4671 44.8272 11.5978 45.3337 11.9817 45.5625C12.1124 45.6442 12.2595 45.6769 12.3984 45.6769C12.6761 45.6769 12.9457 45.538 13.1009 45.2766C13.3378 44.8918 13.2079 44.3935 12.8232 44.1565Z" fill="#19CAAF"/>
<path d="M47.0472 31.8309C46.6224 31.6765 46.1486 31.8962 46.0015 32.321C45.8463 32.7467 46.0587 33.2123 46.4835 33.3667C46.5734 33.3994 46.6714 33.4165 46.7613 33.4165C47.0962 33.4165 47.4148 33.2123 47.5292 32.8774C47.6852 32.4509 47.472 31.9861 47.0472 31.8309Z" fill="#19CAAF"/>
<path d="M46.1659 34.1177C45.7656 33.9225 45.2672 34.0851 45.0712 34.4935C44.8751 34.902 45.0467 35.393 45.447 35.5882C45.5613 35.6454 45.6839 35.6707 45.8064 35.6707C46.1087 35.6707 46.4028 35.4992 46.5417 35.2124C46.7377 34.8031 46.5743 34.3138 46.1659 34.1177Z" fill="#19CAAF"/>
<path d="M21.7026 47.2029C21.2533 47.1458 20.853 47.4635 20.7958 47.9137C20.7386 48.363 21.0572 48.7714 21.5065 48.8196V48.8286C21.5392 48.8286 21.5719 48.8286 21.6046 48.8286C22.013 48.8286 22.3643 48.5264 22.4133 48.1089C22.4705 47.6604 22.1511 47.2593 21.7026 47.2029Z" fill="#19CAAF"/>
<path d="M17.104 46.1495C16.6792 46.0017 16.2136 46.223 16.0665 46.656C15.9195 47.0808 16.1482 47.5465 16.573 47.6935C16.6629 47.718 16.7527 47.7344 16.8426 47.7344C17.1775 47.7344 17.4961 47.522 17.6105 47.187C17.7576 46.7541 17.5288 46.2884 17.104 46.1495Z" fill="#19CAAF"/>
<path d="M19.3747 46.7945C18.9336 46.6965 18.5006 46.9661 18.3944 47.4072C18.2964 47.8484 18.5741 48.2895 19.0071 48.3875C19.0724 48.4039 19.1296 48.4039 19.195 48.4039C19.5626 48.4039 19.9057 48.1506 19.9874 47.7748C20.0928 47.3337 19.8159 46.8925 19.3747 46.7945Z" fill="#19CAAF"/>
<path d="M14.915 45.2672C14.4984 45.0711 14.0164 45.2501 13.8285 45.6585C13.6406 46.067 13.8121 46.558 14.2206 46.745C14.335 46.7949 14.4493 46.8186 14.5637 46.8186C14.8742 46.8186 15.1682 46.647 15.3071 46.3456C15.495 45.9371 15.3235 45.4543 14.915 45.2672Z" fill="#19CAAF"/>
<path d="M28.7679 46.9744C28.3268 47.0561 28.0327 47.489 28.1144 47.9302C28.1879 48.3223 28.5392 48.5927 28.9231 48.5927C28.9721 48.5927 29.0212 48.5927 29.0702 48.5837C29.5113 48.4947 29.8054 48.069 29.7237 47.6279C29.642 47.1786 29.2091 46.8927 28.7679 46.9744Z" fill="#19CAAF"/>
<path d="M31.0631 46.419C30.6301 46.5407 30.385 46.999 30.5157 47.4312C30.6219 47.7833 30.9487 48.012 31.3 48.012C31.3735 48.012 31.4552 48.003 31.5369 47.9793C31.9699 47.8486 32.215 47.3903 32.0843 46.9582C31.9527 46.5334 31.4961 46.2883 31.0631 46.419Z" fill="#19CAAF"/>
<path d="M33.293 45.6185C32.8763 45.79 32.6803 46.272 32.8518 46.6894C32.9825 46.9999 33.2848 47.187 33.6034 47.187C33.7096 47.187 33.8158 47.1706 33.922 47.1306C34.3386 46.9501 34.5347 46.4762 34.3631 46.0596C34.1826 45.643 33.7096 45.4469 33.293 45.6185Z" fill="#19CAAF"/>
<path d="M26.4229 47.292C25.9736 47.3337 25.6386 47.725 25.6795 48.1743C25.7121 48.5999 26.0716 48.9259 26.4964 48.9259C26.5127 48.9259 26.5372 48.9259 26.5617 48.9259V48.9177C27.0111 48.885 27.346 48.4929 27.3051 48.0436C27.2725 47.5951 26.873 47.2593 26.4229 47.292Z" fill="#19CAAF"/>
<path d="M35.424 44.5975C35.0237 44.8099 34.8766 45.3082 35.0972 45.7011C35.2443 45.9789 35.522 46.1333 35.8161 46.1333C35.9468 46.1333 36.0775 46.1006 36.2001 46.0271C36.6004 45.8147 36.7474 45.3164 36.5268 44.9242C36.3153 44.5239 35.8161 44.3769 35.424 44.5975Z" fill="#19CAAF"/>
</svg>
