<svg width="49" height="49" viewBox="0 0 49 49" fill="none" xmlns="http://www.w3.org/2000/svg">
<path d="M32.7531 22.9539C32.2829 22.9539 31.9018 22.5727 31.9018 22.1025C31.9018 18.9187 28.698 17.2768 27.3312 17.2768C26.861 17.2768 26.4799 16.8957 26.4799 16.4255C26.4799 15.9553 26.861 15.5742 27.3312 15.5742C29.5205 15.5742 33.6044 17.8163 33.6044 22.1026C33.6044 22.5727 33.2233 22.9539 32.7531 22.9539Z" fill="#19CAAF"/>
<path d="M27.5573 48.7002H21.4427C21.0248 48.7002 20.6686 48.3969 20.6021 47.9843L19.7659 42.7925C18.0612 42.3529 16.4338 41.6782 14.914 40.7812L10.6501 43.8621C10.3114 44.1066 9.84501 44.0695 9.54957 43.7739L5.226 39.4503C4.9305 39.1548 4.89315 38.6885 5.13794 38.3497L8.21868 34.086C7.32189 32.5668 6.64711 30.9391 6.20725 29.2342L1.01554 28.3979C0.602959 28.3313 0.299622 27.9753 0.299622 27.5573V21.4426C0.299622 21.0247 0.602959 20.6686 1.01554 20.6021L6.20725 19.766C6.64708 18.0609 7.32187 16.4332 8.21862 14.9139L5.13794 10.6503C4.89315 10.3116 4.9305 9.84533 5.226 9.54975L9.54957 5.22594C9.84509 4.93047 10.3115 4.89315 10.6501 5.13787L14.914 8.21861C16.4336 7.32161 18.061 6.64705 19.7659 6.2073L20.6021 1.01572C20.6686 0.603115 21.0248 0.299805 21.4427 0.299805H27.5572C27.9752 0.299805 28.3312 0.603142 28.3977 1.01572L29.2341 6.20735C30.939 6.64702 32.5666 7.32178 34.0859 8.21878L38.3498 5.13798C38.6884 4.89315 39.1546 4.93055 39.4504 5.22605L43.774 9.54972C44.0694 9.84522 44.1068 10.3115 43.862 10.6503L40.7813 14.914C41.6785 16.4339 42.3531 18.0612 42.7927 19.7659L47.9844 20.6021C48.397 20.6686 48.7003 21.0247 48.7003 21.4426V27.5573C48.7003 27.9752 48.397 28.3313 47.9844 28.3978L42.7926 29.2342C42.3528 30.9391 41.6781 32.5668 40.7813 34.086L43.862 38.3499C44.1068 38.6886 44.0695 39.1548 43.774 39.4505L39.4504 43.774C39.1549 44.0697 38.6885 44.1067 38.3498 43.862L34.0857 40.7812C32.5664 41.678 30.9389 42.3527 29.2341 42.7924L28.3977 47.9843C28.3312 48.3969 27.9752 48.7002 27.5573 48.7002ZM22.1679 46.9976H26.8321L27.6431 41.9626C27.6985 41.6193 27.9571 41.3439 28.2965 41.2675C30.2044 40.8374 32.0125 40.088 33.6704 39.0399C33.9641 38.854 34.3417 38.8656 34.6238 39.0695L38.7592 42.0573L42.0572 38.7593L39.0695 34.6242C38.8658 34.3423 38.854 33.9648 39.0399 33.6707C40.0879 32.0129 40.8374 30.2047 41.2679 28.2964C41.3444 27.9571 41.6195 27.6986 41.9629 27.6432L46.9976 26.8322V22.1678L41.9629 21.3569C41.6195 21.3015 41.3442 21.0429 41.2677 20.7035C40.8378 18.7959 40.0883 16.9878 39.0399 15.3294C38.854 15.0354 38.8658 14.6579 39.0695 14.3759L42.0572 10.2409L38.7592 6.94279L34.6241 9.93059C34.342 10.1343 33.9645 10.146 33.6706 9.9601C32.0127 8.91194 30.2046 8.16232 28.2965 7.73229C27.9572 7.65579 27.6985 7.38063 27.6431 7.03722L26.8321 2.00247H22.1678L21.3568 7.03709C21.3015 7.3805 21.0429 7.65568 20.7035 7.73218C18.7956 8.16234 16.9874 8.91188 15.3293 9.95994C15.0352 10.1458 14.6578 10.134 14.3759 9.93037L10.2407 6.94268L6.94272 10.2409L9.93041 14.3758C10.1341 14.6577 10.1458 15.0352 9.95997 15.3292C8.91205 16.987 8.16246 18.7953 7.73211 20.7037C7.65553 21.0429 7.38037 21.3015 7.03701 21.3569L2.00226 22.1678V26.8321L7.03701 27.6432C7.38037 27.6985 7.65556 27.9571 7.73211 28.2964C8.16238 30.2046 8.91197 32.0128 9.95997 33.6707C10.1458 33.9648 10.1341 34.3422 9.93041 34.6242L6.94272 38.7591L10.2407 42.0573L14.3758 39.0695C14.6577 38.8657 15.0352 38.8539 15.3292 39.0399C16.9877 40.088 18.7958 40.8375 20.7035 41.2677C21.0428 41.3442 21.3014 41.6194 21.3568 41.9627L22.1679 46.9976Z" fill="#19CAAF"/>
<path d="M24.5 37.5932C17.2803 37.5932 11.4067 31.7195 11.4067 24.4998C11.4067 17.2802 17.2803 11.4065 24.5 11.4065C31.7198 11.4065 37.5935 17.2802 37.5935 24.4998C37.5935 31.7195 31.7198 37.5932 24.5 37.5932ZM24.5 13.1091C18.2191 13.1091 13.1093 18.2189 13.1093 24.4998C13.1093 30.7807 18.2191 35.8906 24.5 35.8906C30.7809 35.8906 35.8909 30.7807 35.8909 24.4998C35.8909 18.2189 30.7809 13.1091 24.5 13.1091Z" fill="#19CAAF"/>
</svg>
