<svg width="69" height="69" viewBox="0 0 69 69" fill="none" xmlns="http://www.w3.org/2000/svg">
<path d="M65.7651 32.3388C65.7643 32.2751 65.7579 32.2115 65.7459 32.149C65.7433 32.1348 65.7407 32.1208 65.7375 32.1067C65.7255 32.0511 65.7091 31.9964 65.6884 31.9434L65.6812 31.9252L65.6805 31.9234L61.9182 22.5174C61.6799 21.9161 61.2659 21.4004 60.7302 21.0378C60.1945 20.6751 59.562 20.4823 58.9151 20.4844H48.5156V17.25C48.5155 16.9641 48.402 16.6899 48.1998 16.4877C47.9976 16.2855 47.7234 16.1719 47.4374 16.1719H6.46869C5.61117 16.1728 4.78903 16.5139 4.18267 17.1202C3.57631 17.7266 3.23525 18.5487 3.23431 19.4063V49.5938C3.23525 50.4513 3.57631 51.2734 4.18267 51.8798C4.78903 52.4861 5.61117 52.8272 6.46869 52.8281H10.8594C11.1185 54.6242 12.0161 56.2668 13.3878 57.4549C14.7595 58.6429 16.5134 59.2969 18.3281 59.2969C20.1427 59.2969 21.8966 58.6429 23.2683 57.4549C24.64 56.2668 25.5376 54.6242 25.7967 52.8281H43.2032C43.4622 54.6242 44.3598 56.2668 45.7315 57.4549C47.1032 58.6429 48.8571 59.2969 50.6718 59.2969C52.4865 59.2969 54.2404 58.6429 55.6121 57.4549C56.9838 56.2668 57.8814 54.6242 58.1404 52.8281H62.5312C63.3887 52.8272 64.2108 52.4861 64.8172 51.8797C65.4235 51.2734 65.7646 50.4513 65.7655 49.5938V32.3438L65.7651 32.3388ZM58.9151 22.6406C59.1308 22.6399 59.3416 22.7042 59.5202 22.8251C59.6987 22.946 59.8367 23.1179 59.9162 23.3184L63.095 31.2656H48.5156V22.6406H58.9151ZM6.46869 18.3281H46.3593V37.7344H5.39057V19.4063C5.39087 19.1204 5.50456 18.8464 5.70668 18.6442C5.9088 18.4421 6.18285 18.3284 6.46869 18.3281ZM5.39057 49.5938V39.8906H46.3593V45.562C45.5118 46.1526 44.7944 46.9109 44.2516 47.7898C43.7087 48.6687 43.3519 49.6496 43.2032 50.6719H25.7967C25.5377 48.8758 24.6401 47.2332 23.2684 46.0451C21.8966 44.857 20.1427 44.2031 18.3281 44.2031C16.5134 44.2031 14.7595 44.857 13.3878 46.0451C12.0161 47.2332 11.1185 48.8758 10.8594 50.6719H6.46869C6.18285 50.6716 5.9088 50.5579 5.70668 50.3558C5.50456 50.1536 5.39087 49.8796 5.39057 49.5938ZM18.3281 57.1406C17.2619 57.1406 16.2197 56.8245 15.3332 56.2321C14.4467 55.6398 13.7558 54.7979 13.3478 53.8129C12.9398 52.8279 12.833 51.744 13.041 50.6983C13.249 49.6527 13.7624 48.6922 14.5163 47.9383C15.2702 47.1844 16.2307 46.671 17.2764 46.463C18.3221 46.255 19.406 46.3617 20.391 46.7697C21.376 47.1777 22.2179 47.8686 22.8102 48.7551C23.4025 49.6416 23.7187 50.6838 23.7187 51.75C23.7171 53.1792 23.1486 54.5494 22.1381 55.56C21.1275 56.5706 19.7573 57.139 18.3281 57.1406ZM50.6718 57.1406C49.6056 57.1406 48.5634 56.8245 47.6769 56.2321C46.7905 55.6398 46.0995 54.7979 45.6915 53.8129C45.2835 52.8279 45.1768 51.744 45.3848 50.6983C45.5928 49.6527 46.1062 48.6922 46.8601 47.9383C47.614 47.1844 48.5745 46.671 49.6202 46.463C50.6658 46.255 51.7497 46.3617 52.7347 46.7697C53.7197 47.1777 54.5616 47.8686 55.1539 48.7551C55.7463 49.6416 56.0624 50.6838 56.0624 51.75C56.0608 53.1792 55.4924 54.5494 54.4818 55.56C53.4712 56.5706 52.101 57.139 50.6718 57.1406ZM63.6093 49.5938C63.609 49.8796 63.4953 50.1536 63.2932 50.3558C63.0911 50.5579 62.817 50.6716 62.5312 50.6719H58.1404C57.9861 49.5987 57.6022 48.5715 57.0149 47.6602C56.4276 46.7488 55.6508 45.9748 54.7373 45.3908C53.8239 44.8068 52.7952 44.4266 51.7216 44.2761C50.6479 44.1257 49.5544 44.2084 48.5156 44.5187V33.4219H63.6093V49.5938Z" fill="#19CAAF"/>
</svg>
