<svg width="16" height="16" viewBox="0 0 16 16" fill="none" xmlns="http://www.w3.org/2000/svg">
<path d="M10.5733 2.92665V12.9266C10.5733 14.04 11.3333 14.6666 12.1667 14.6666C12.9267 14.6666 13.76 14.14 13.76 12.9266V2.99998C13.76 1.97331 13 1.33331 12.1667 1.33331C11.3333 1.33331 10.5733 2.03998 10.5733 2.92665ZM6.40666 7.99998V12.9266C6.40666 14.0466 7.17999 14.6666 7.99999 14.6666C8.75999 14.6666 9.59332 14.14 9.59332 12.9266V8.07331C9.59332 7.04665 8.83332 6.40665 7.99999 6.40665C7.16666 6.40665 6.40666 7.11331 6.40666 7.99998ZM3.83332 11.4866C4.71332 11.4866 5.42666 12.2 5.42666 13.0733C5.42666 13.4959 5.25879 13.9012 4.95998 14.2C4.66117 14.4988 4.2559 14.6666 3.83332 14.6666C3.41075 14.6666 3.00547 14.4988 2.70667 14.2C2.40786 13.9012 2.23999 13.4959 2.23999 13.0733C2.23999 12.2 2.95332 11.4866 3.83332 11.4866Z" fill="#C4C4C4"/>
</svg>
