<svg width="52" height="58" viewBox="0 0 52 58" fill="none" xmlns="http://www.w3.org/2000/svg">
<path d="M19.9781 1.32501H5.75621C3.32184 1.32501 1.39996 3.24689 1.39996 5.68126V19.5188H7.67809" stroke="white" stroke-width="2" stroke-miterlimit="10"/>
<path d="M37.0187 55.5219H50.4718C50.4718 55.5219 50.6 55.5219 50.6 55.3938V1.58126C50.6 1.45314 50.4718 1.32501 50.3437 1.32501H5.75623C8.57498 1.32501 10.1125 3.50314 10.1125 5.68126V55.2656C10.1125 55.3938 10.2406 55.5219 10.3687 55.5219H24.0781" stroke="white" stroke-width="2" stroke-miterlimit="10"/>
<path d="M16.2625 7.85938H26.8968" stroke="white" stroke-width="2" stroke-miterlimit="10"/>
<path d="M16.2625 16.3156H44.1937" stroke="white" stroke-width="2" stroke-miterlimit="10"/>
<path d="M16.2625 22.4656H44.1937" stroke="white" stroke-width="2" stroke-miterlimit="10"/>
<path d="M16.2625 28.6156H44.1937" stroke="white" stroke-width="2" stroke-miterlimit="10"/>
<path d="M26.8969 51.2938V56.4188C26.8969 56.675 27.1531 56.8031 27.2812 56.675L30.2281 55.5219L33.175 56.675C33.3031 56.8031 33.5594 56.675 33.5594 56.4188V51.2938" stroke="white" stroke-width="2" stroke-miterlimit="10"/>
<path d="M38.4281 41.9406C38.4281 42.9656 37.4031 43.8625 37.0187 44.7594C36.6343 45.6563 36.6343 47.0656 35.9937 47.7063C35.225 48.475 33.9437 48.3469 33.0468 48.7313C32.15 49.1156 31.2531 50.1406 30.2281 50.1406C29.2031 50.1406 28.3062 49.1156 27.4093 48.7313C26.5124 48.3469 25.1031 48.3469 24.4625 47.7063C23.6937 46.9375 23.8218 45.6563 23.4375 44.7594C23.0531 43.8625 22.0281 42.9656 22.0281 41.9406C22.0281 40.9156 23.0531 40.0188 23.4375 39.1219C23.8218 38.225 23.8218 36.8156 24.4625 36.175C25.2312 35.4063 26.5124 35.5344 27.4093 35.15C28.3062 34.7656 29.2031 33.7406 30.2281 33.7406C31.2531 33.7406 32.15 34.7656 33.0468 35.15C33.9437 35.5344 35.3531 35.5344 35.9937 36.175C36.7625 36.9438 36.6343 38.225 37.0187 39.1219C37.5312 40.0188 38.4281 40.7875 38.4281 41.9406Z" stroke="white" stroke-width="2" stroke-miterlimit="10"/>
</svg>
