<svg width="64" height="64" viewBox="0 0 64 64" fill="none" xmlns="http://www.w3.org/2000/svg">
<path d="M33.748 28.2701C33.5747 27.9585 33.3213 27.6988 33.014 27.518C32.7066 27.3373 32.3566 27.2419 32 27.2419C31.6434 27.2419 31.2934 27.3373 30.986 27.518C30.6787 27.6988 30.4253 27.9585 30.252 28.2701L26.958 34.1954L20.3052 35.4972C19.9553 35.5657 19.63 35.7264 19.3631 35.9628C19.0962 36.1992 18.8974 36.5027 18.7872 36.8418C18.677 37.1808 18.6594 37.5432 18.7363 37.8914C18.8132 38.2395 18.9818 38.5608 19.2246 38.8219L23.8418 43.7857L23.0239 50.5157C22.981 50.8696 23.0334 51.2286 23.1759 51.5555C23.3183 51.8824 23.5455 52.1652 23.834 52.3747C24.1225 52.5843 24.4618 52.7129 24.8167 52.7472C25.1716 52.7816 25.5292 52.7204 25.8525 52.5701L32 49.7125L38.1475 52.5701C38.4708 52.7204 38.8285 52.7816 39.1834 52.7472C39.5383 52.7129 39.8776 52.5842 40.1661 52.3747C40.4546 52.1651 40.6818 51.8822 40.8242 51.5553C40.9667 51.2284 41.0191 50.8694 40.9761 50.5154L40.1582 43.7859L44.7749 38.8221C45.0178 38.5611 45.1866 38.2399 45.2636 37.8917C45.3406 37.5436 45.3232 37.1811 45.213 36.842C45.1028 36.5029 44.904 36.1994 44.6371 35.963C44.3701 35.7265 44.0448 35.5658 43.6949 35.4974L37.042 34.1954L33.748 28.2701ZM38.6934 42.4234C38.495 42.6366 38.3457 42.8906 38.2558 43.1676C38.166 43.4446 38.1379 43.7379 38.1734 44.027L38.9907 50.7564L32.8433 47.8985C32.5793 47.7757 32.2916 47.7121 32.0005 47.7121C31.7093 47.7121 31.4217 47.7757 31.1577 47.8985L25.0098 50.7559L25.8276 44.0269C25.8631 43.7377 25.8349 43.4443 25.745 43.1672C25.6551 42.8902 25.5056 42.6361 25.3071 42.4229L20.689 37.4601L27.3418 36.1583C27.6278 36.1027 27.8981 35.9851 28.1338 35.8139C28.3695 35.6427 28.5648 35.4219 28.7061 35.1671L31.9971 29.2371L32 29.2418L35.2939 35.1671C35.4352 35.4219 35.6305 35.6427 35.8662 35.8139C36.1019 35.9851 36.3722 36.1027 36.6582 36.1583L43.3105 37.4601L38.6934 42.4234Z" fill="white"/>
<path d="M54.8506 2.4741C54.761 2.32914 54.6358 2.20949 54.4869 2.12652C54.338 2.04354 54.1704 1.99999 54 2H38C37.8143 1.99998 37.6322 2.05167 37.4742 2.14929C37.3162 2.24691 37.1886 2.3866 37.1055 2.5527L32 12.7637L26.8945 2.5527C26.8114 2.3866 26.6837 2.24691 26.5258 2.14929C26.3678 2.05167 26.1857 1.99998 26 2H9.99999C9.82952 1.99998 9.66187 2.04354 9.51297 2.12655C9.36407 2.20955 9.23886 2.32925 9.14923 2.47426C9.05961 2.61927 9.00854 2.78479 9.00089 2.9551C8.99323 3.1254 9.02924 3.29483 9.10549 3.4473L19.2909 23.8181C19.063 24.1795 18.8779 24.5661 18.7393 24.9702C18.5654 25.5004 18.2692 25.9822 17.8744 26.3766C17.4797 26.771 16.9976 27.0668 16.4673 27.2402C15.3505 27.6061 14.378 28.3158 13.6888 29.2677C12.9996 30.2196 12.629 31.365 12.6299 32.5402C12.6332 32.9165 12.6728 33.2915 12.748 33.6602C12.7956 33.904 12.8196 34.1518 12.8198 34.4002C12.822 35.2785 12.5002 36.1267 11.916 36.7825C11.0042 37.8059 10.5003 39.1286 10.5 40.4993C10.4998 41.8699 11.0032 43.1929 11.9146 44.2166C12.4996 44.8725 12.822 45.7211 12.82 46.6C12.8199 46.8484 12.7958 47.0962 12.7482 47.34C12.6731 47.7087 12.6335 48.0837 12.6301 48.46C12.6293 49.6356 13.0003 50.7814 13.69 51.7334C14.3797 52.6855 15.3528 53.395 16.4701 53.7607C17.0003 53.9345 17.4822 54.2307 17.8766 54.6255C18.271 55.0202 18.5668 55.5023 18.7401 56.0327C19.106 57.1495 19.8157 58.122 20.7676 58.8112C21.7195 59.5004 22.8649 59.871 24.0401 59.8701C24.4164 59.8668 24.7914 59.8272 25.1601 59.752C25.7095 59.6407 26.2772 59.6579 26.8188 59.8022C27.3605 59.9465 27.8614 60.2141 28.2826 60.584C29.306 61.4958 30.6287 61.9997 31.9994 62C33.37 62.0002 34.693 61.4968 35.7167 60.5854C36.1381 60.2156 36.6391 59.9479 37.1809 59.8034C37.7226 59.6588 38.2904 59.6413 38.84 59.752C39.2087 59.8272 39.5837 59.8667 39.96 59.8701C41.1356 59.8708 42.2814 59.4999 43.2334 58.8102C44.1854 58.1205 44.895 57.1474 45.2607 56.0301C45.4345 55.4999 45.7307 55.018 46.1255 54.6236C46.5202 54.2292 47.0023 53.9334 47.5327 53.7601C48.6495 53.3941 49.622 52.6845 50.3112 51.7326C51.0004 50.7807 51.371 49.6353 51.3701 48.4601C51.3666 48.0838 51.3271 47.7088 51.252 47.3401C51.2044 47.0963 51.1803 46.8485 51.1802 46.6001C51.1782 45.7219 51.5 44.8737 52.084 44.2178C52.9958 43.1944 53.4997 41.8717 53.5 40.501C53.5002 39.1304 52.9968 37.8074 52.0854 36.7837C51.5003 36.1277 51.1779 35.279 51.18 34.4C51.1801 34.1516 51.2041 33.9038 51.2518 33.66C51.3269 33.2913 51.3665 32.9163 51.3699 32.54C51.3706 31.3644 50.9996 30.2186 50.31 29.2666C49.6203 28.3145 48.6472 27.605 47.5299 27.2393C47 27.0657 46.5184 26.7697 46.1242 26.3753C45.73 25.9809 45.4342 25.4993 45.2608 24.9693C45.122 24.5656 44.9369 24.1793 44.7092 23.8182L54.8945 3.4473C54.9706 3.29476 55.0066 3.12531 54.9989 2.955C54.9912 2.78469 54.9402 2.61916 54.8506 2.4741ZM11.6182 4H25.3818L30.8818 15L28.1142 20.5352C28.009 20.617 27.8991 20.6925 27.785 20.7613C27.6931 20.8187 27.6062 20.8837 27.5093 20.9321C27.3644 20.9994 27.2152 21.0569 27.0626 21.1041C26.9634 21.1378 26.8685 21.182 26.7663 21.2071C26.5992 21.2428 26.4299 21.267 26.2595 21.2793C26.1631 21.2893 26.0695 21.3123 25.9719 21.3146C25.6997 21.322 25.4275 21.2996 25.1602 21.248C24.7915 21.1728 24.4164 21.1333 24.0402 21.1299C23.7749 21.1322 23.5102 21.1539 23.2481 21.1948C23.1759 21.2054 23.1049 21.219 23.0332 21.2324C22.8238 21.2716 22.6168 21.3228 22.4132 21.3857C22.3598 21.4022 22.3056 21.4149 22.2526 21.433C22.007 21.5172 21.7675 21.6182 21.5357 21.7352C21.478 21.7643 21.4234 21.7983 21.3666 21.8294C21.1882 21.9271 21.0152 22.0343 20.8483 22.1506C20.8103 22.1771 20.7678 22.1962 20.7305 22.2236L11.6182 4ZM46.9067 29.14C47.6233 29.3747 48.2474 29.8299 48.6898 30.4405C49.1322 31.0511 49.3703 31.786 49.3701 32.54C49.3664 32.7887 49.3389 33.0365 49.2881 33.28C49.2164 33.649 49.1802 34.0241 49.18 34.4C49.1778 35.7715 49.6818 37.0955 50.5955 38.1183C51.1781 38.7749 51.4998 39.6223 51.4998 40.5001C51.4998 41.3779 51.1781 42.2253 50.5955 42.8819L50.594 42.8834C49.6812 43.906 49.1778 45.2293 49.18 46.6C49.1802 46.9759 49.2163 47.351 49.2879 47.72C49.3386 47.9635 49.3661 48.2113 49.3699 48.46C49.3704 49.2136 49.1327 49.948 48.691 50.5585C48.2492 51.169 47.6258 51.6243 46.9099 51.8594C46.0813 52.1306 45.3282 52.593 44.7115 53.2093C44.0948 53.8255 43.6318 54.5783 43.36 55.4067C43.1253 56.1233 42.6701 56.7474 42.0595 57.1898C41.4489 57.6322 40.714 57.8703 39.96 57.8701C39.7113 57.8664 39.4635 57.8389 39.22 57.7881C38.3673 57.6194 37.4871 57.6496 36.648 57.8764C35.8088 58.1032 35.0333 58.5204 34.3816 59.0957C33.7163 59.6608 32.8717 59.9709 31.9988 59.9706C31.1259 59.9703 30.2815 59.6597 29.6165 59.0942C28.594 58.1814 27.2707 57.6778 25.9 57.68C25.5239 57.6802 25.1486 57.7164 24.7794 57.7879C24.5361 57.8387 24.2886 57.8662 24.0401 57.8699C23.2865 57.8704 22.5521 57.6328 21.9416 57.191C21.3311 56.7492 20.8758 56.1258 20.6407 55.4099C20.3695 54.5813 19.907 53.8282 19.2908 53.2115C18.6745 52.5948 17.9217 52.1318 17.0933 51.86C16.3767 51.6253 15.7526 51.1701 15.3102 50.5595C14.8678 49.9489 14.6297 49.214 14.6299 48.46C14.6337 48.2113 14.6611 47.9635 14.7119 47.72C14.7836 47.351 14.8198 46.9759 14.82 46.6C14.8222 45.2285 14.3181 43.9045 13.4045 42.8817C12.8217 42.2248 12.4999 41.377 12.5002 40.4989C12.5005 39.6207 12.8228 38.7731 13.406 38.1166C14.3188 37.094 14.8222 35.7707 14.82 34.4C14.8198 34.0239 14.7837 33.6486 14.7121 33.2794C14.6612 33.0361 14.6338 32.7886 14.6301 32.5401C14.6296 31.7865 14.8672 31.0521 15.309 30.4416C15.7508 29.8311 16.3742 29.3758 17.0901 29.1407C17.9189 28.8691 18.6721 28.4061 19.2888 27.7894C19.9055 27.1727 20.3684 26.4195 20.6401 25.5907C20.8758 24.875 21.3313 24.2518 21.9417 23.81C22.5522 23.3682 23.2864 23.1303 24.04 23.13C24.2887 23.1337 24.5365 23.1612 24.78 23.212C25.2059 23.2947 25.6399 23.3289 26.0735 23.3141C26.089 23.3135 26.1041 23.3105 26.1196 23.3099C26.3178 23.3024 26.5155 23.2845 26.7119 23.2564C26.7368 23.2528 26.7609 23.2454 26.7858 23.2414C26.9707 23.2114 27.1544 23.1766 27.3347 23.1291C27.3854 23.1158 27.4337 23.0956 27.484 23.0809C27.6365 23.0362 27.789 22.9909 27.9367 22.9338C28.0051 22.9073 28.0696 22.8723 28.1367 22.8431C28.2625 22.7885 28.3895 22.7363 28.5108 22.6725C28.5927 22.6294 28.6691 22.5768 28.7487 22.5296C28.85 22.4696 28.9537 22.4136 29.0511 22.3468C29.1454 22.2823 29.2326 22.2073 29.3228 22.1368C29.3964 22.0791 29.4739 22.0268 29.5444 21.9652L29.5537 21.9579C29.5757 21.9413 29.5972 21.9233 29.6182 21.9047C30.1997 21.4128 30.9187 21.1122 31.6772 21.0437C32.4358 20.9752 33.197 21.1422 33.8572 21.522C34.0444 21.6317 34.2202 21.7599 34.3818 21.9047C35.0316 22.4832 35.8071 22.9025 36.647 23.1294C37.4868 23.3564 38.368 23.3847 39.2207 23.2123C39.4639 23.1615 39.7115 23.134 39.96 23.1303C40.7133 23.1309 41.4472 23.3689 42.0575 23.8106C42.6678 24.2522 43.1233 24.8749 43.3594 25.5903C43.6307 26.4188 44.0931 27.1719 44.7094 27.7885C45.3256 28.4052 46.0784 28.8682 46.9067 29.14ZM43.27 22.2236C43.2354 22.1982 43.1958 22.1804 43.1606 22.1558C42.9885 22.0354 42.8098 21.9247 42.6254 21.8242C42.5725 21.7953 42.5217 21.7637 42.4679 21.7366C42.2347 21.6186 41.9937 21.517 41.7465 21.4323C41.695 21.4147 41.6423 21.4023 41.5904 21.3865C41.3856 21.3232 41.1773 21.2717 40.9666 21.2323C40.895 21.2189 40.8244 21.2054 40.7523 21.1948C40.4901 21.154 40.2253 21.1323 39.96 21.13C39.5803 21.1335 39.2019 21.1737 38.83 21.25C38.2821 21.3625 37.7155 21.3457 37.1753 21.2009C36.635 21.0561 36.1359 20.7874 35.7177 20.416C35.4978 20.2228 35.2625 20.0479 35.014 19.8932C34.9426 19.8472 34.8721 19.8019 34.7989 19.7593C34.573 19.6285 34.3383 19.5136 34.0964 19.4154C33.9925 19.3734 33.8864 19.3411 33.7796 19.3054C33.601 19.2454 33.42 19.1948 33.2367 19.1535C33.1376 19.131 33.0412 19.1027 32.9406 19.0856C32.6727 19.0417 32.402 19.0171 32.1306 19.0119C32.0867 19.0109 32.0443 19 32 19C31.9613 19 31.9241 19.0095 31.8856 19.01C31.616 19.0118 31.347 19.0334 31.0806 19.0749L32.8945 15.447L38.6182 4H52.3818L43.27 22.2236Z" fill="white"/>
</svg>
